<mxfile host="app.diagrams.net" agent="Mozilla/5.0 (Windows NT 10.0; Win64; x64) AppleWebKit/537.36 (KHTML, like Gecko) Chrome/127.0.0.0 Safari/537.36 Edg/127.0.0.0" version="25.0.1">
  <diagram name="第 1 页" id="Ci88SHu618q8VeSx3V0C">
    <mxGraphModel dx="2952" dy="1135" grid="1" gridSize="10" guides="1" tooltips="1" connect="1" arrows="1" fold="1" page="1" pageScale="1" pageWidth="827" pageHeight="1169" math="0" shadow="0">
      <root>
        <mxCell id="0" />
        <mxCell id="1" parent="0" />
        <mxCell id="8brqG52jJ0TLhpy8n45_-764" value="" style="group;fontFamily=Times New Roman;" vertex="1" connectable="0" parent="1">
          <mxGeometry x="110" y="260" width="1205" height="252.7" as="geometry" />
        </mxCell>
        <mxCell id="8brqG52jJ0TLhpy8n45_-765" value="" style="rounded=1;whiteSpace=wrap;html=1;fillColor=#dae8fc;strokeColor=default;strokeWidth=2;fontSize=22;fontFamily=Times New Roman;opacity=20;" vertex="1" parent="8brqG52jJ0TLhpy8n45_-764">
          <mxGeometry y="118.7" width="1050" height="134" as="geometry" />
        </mxCell>
        <mxCell id="8brqG52jJ0TLhpy8n45_-766" style="edgeStyle=orthogonalEdgeStyle;rounded=0;orthogonalLoop=1;jettySize=auto;html=1;exitX=1;exitY=0.5;exitDx=0;exitDy=0;entryX=0;entryY=0.5;entryDx=0;entryDy=0;fontFamily=Times New Roman;" edge="1" parent="8brqG52jJ0TLhpy8n45_-764" source="8brqG52jJ0TLhpy8n45_-767" target="8brqG52jJ0TLhpy8n45_-787">
          <mxGeometry relative="1" as="geometry" />
        </mxCell>
        <mxCell id="8brqG52jJ0TLhpy8n45_-767" value="&lt;span&gt;Node Candidate Set Select&lt;/span&gt;" style="rounded=0;whiteSpace=wrap;html=1;strokeColor=#9673a6;fontFamily=Times New Roman;fontSize=22;fillColor=#e1d5e7;strokeWidth=4;align=center;verticalAlign=middle;" vertex="1" parent="8brqG52jJ0TLhpy8n45_-764">
          <mxGeometry x="55" y="151.7" width="165" height="70" as="geometry" />
        </mxCell>
        <mxCell id="8brqG52jJ0TLhpy8n45_-771" style="edgeStyle=orthogonalEdgeStyle;rounded=0;orthogonalLoop=1;jettySize=auto;html=1;exitX=1;exitY=0.5;exitDx=0;exitDy=0;entryX=0;entryY=0.5;entryDx=0;entryDy=0;fontFamily=Times New Roman;" edge="1" parent="8brqG52jJ0TLhpy8n45_-764" source="8brqG52jJ0TLhpy8n45_-775" target="8brqG52jJ0TLhpy8n45_-783">
          <mxGeometry relative="1" as="geometry" />
        </mxCell>
        <mxCell id="8brqG52jJ0TLhpy8n45_-772" value="Yes" style="edgeLabel;html=1;align=center;verticalAlign=middle;resizable=0;points=[];fontFamily=Times New Roman;" vertex="1" connectable="0" parent="8brqG52jJ0TLhpy8n45_-771">
          <mxGeometry x="885" y="-1" relative="1" as="geometry">
            <mxPoint as="offset" />
          </mxGeometry>
        </mxCell>
        <mxCell id="8brqG52jJ0TLhpy8n45_-910" value="Yes" style="edgeLabel;html=1;align=center;verticalAlign=middle;resizable=0;points=[];" vertex="1" connectable="0" parent="8brqG52jJ0TLhpy8n45_-771">
          <mxGeometry x="-0.2344" y="1" relative="1" as="geometry">
            <mxPoint as="offset" />
          </mxGeometry>
        </mxCell>
        <mxCell id="8brqG52jJ0TLhpy8n45_-773" style="edgeStyle=orthogonalEdgeStyle;rounded=0;orthogonalLoop=1;jettySize=auto;html=1;exitX=0.5;exitY=0;exitDx=0;exitDy=0;fontFamily=Times New Roman;" edge="1" parent="8brqG52jJ0TLhpy8n45_-764" source="8brqG52jJ0TLhpy8n45_-775">
          <mxGeometry relative="1" as="geometry">
            <mxPoint x="30" y="186.70000000000073" as="targetPoint" />
            <Array as="points">
              <mxPoint x="715" y="137" />
              <mxPoint x="30" y="137" />
            </Array>
          </mxGeometry>
        </mxCell>
        <mxCell id="8brqG52jJ0TLhpy8n45_-774" value="No" style="edgeLabel;html=1;align=center;verticalAlign=middle;resizable=0;points=[];fontFamily=Times New Roman;" vertex="1" connectable="0" parent="8brqG52jJ0TLhpy8n45_-773">
          <mxGeometry x="511" y="1" relative="1" as="geometry">
            <mxPoint as="offset" />
          </mxGeometry>
        </mxCell>
        <mxCell id="8brqG52jJ0TLhpy8n45_-909" value="No" style="edgeLabel;html=1;align=center;verticalAlign=middle;resizable=0;points=[];" vertex="1" connectable="0" parent="8brqG52jJ0TLhpy8n45_-773">
          <mxGeometry x="-0.163" y="-1" relative="1" as="geometry">
            <mxPoint as="offset" />
          </mxGeometry>
        </mxCell>
        <mxCell id="8brqG52jJ0TLhpy8n45_-775" value="Connect?&amp;nbsp;" style="rhombus;whiteSpace=wrap;html=1;fontSize=22;fontFamily=Times New Roman;fillColor=#bac8d3;strokeColor=#23445d;opacity=40;strokeWidth=2;" vertex="1" parent="8brqG52jJ0TLhpy8n45_-764">
          <mxGeometry x="600" y="145.70000000000073" width="230" height="82" as="geometry" />
        </mxCell>
        <mxCell id="8brqG52jJ0TLhpy8n45_-776" style="edgeStyle=orthogonalEdgeStyle;rounded=0;orthogonalLoop=1;jettySize=auto;html=1;exitX=1;exitY=0.5;exitDx=0;exitDy=0;entryX=0;entryY=0.5;entryDx=0;entryDy=0;fontFamily=Times New Roman;fontSize=26;" edge="1" parent="8brqG52jJ0TLhpy8n45_-764" source="8brqG52jJ0TLhpy8n45_-777" target="8brqG52jJ0TLhpy8n45_-782">
          <mxGeometry relative="1" as="geometry" />
        </mxCell>
        <mxCell id="8brqG52jJ0TLhpy8n45_-777" value="&lt;span&gt;Heuristic Iteration Optimal&lt;/span&gt;" style="rounded=0;whiteSpace=wrap;html=1;strokeColor=#9673a6;fontFamily=Times New Roman;strokeWidth=4;align=center;verticalAlign=middle;fontSize=26;fillColor=#e1d5e7;opacity=80;" vertex="1" parent="8brqG52jJ0TLhpy8n45_-764">
          <mxGeometry x="604" y="0.5" width="250" height="80" as="geometry" />
        </mxCell>
        <mxCell id="8brqG52jJ0TLhpy8n45_-778" style="edgeStyle=orthogonalEdgeStyle;rounded=0;orthogonalLoop=1;jettySize=auto;html=1;exitX=1;exitY=0.5;exitDx=0;exitDy=0;fontFamily=Times New Roman;fontSize=26;" edge="1" parent="8brqG52jJ0TLhpy8n45_-764" source="8brqG52jJ0TLhpy8n45_-779" target="8brqG52jJ0TLhpy8n45_-777">
          <mxGeometry relative="1" as="geometry" />
        </mxCell>
        <mxCell id="8brqG52jJ0TLhpy8n45_-779" value="&lt;span&gt;CTS Initial Solution Generate&amp;nbsp;&lt;/span&gt;" style="rounded=0;whiteSpace=wrap;html=1;strokeColor=#6c8ebf;fontFamily=Times New Roman;strokeWidth=2;fillColor=#dae8fc;align=center;verticalAlign=middle;fontSize=26;opacity=80;" vertex="1" parent="8brqG52jJ0TLhpy8n45_-764">
          <mxGeometry x="267" width="260" height="81" as="geometry" />
        </mxCell>
        <mxCell id="8brqG52jJ0TLhpy8n45_-780" style="edgeStyle=orthogonalEdgeStyle;rounded=0;orthogonalLoop=1;jettySize=auto;html=1;exitX=1;exitY=0.5;exitDx=0;exitDy=0;entryX=0;entryY=0.5;entryDx=0;entryDy=0;fontFamily=Times New Roman;fontSize=26;" edge="1" parent="8brqG52jJ0TLhpy8n45_-764" source="8brqG52jJ0TLhpy8n45_-781" target="8brqG52jJ0TLhpy8n45_-779">
          <mxGeometry relative="1" as="geometry" />
        </mxCell>
        <mxCell id="8brqG52jJ0TLhpy8n45_-781" value="START" style="rounded=1;whiteSpace=wrap;html=1;strokeColor=#6c8ebf;fontFamily=Times New Roman;fillColor=#dae8fc;strokeWidth=2;fontSize=26;" vertex="1" parent="8brqG52jJ0TLhpy8n45_-764">
          <mxGeometry x="30" y="16.75" width="100" height="47.5" as="geometry" />
        </mxCell>
        <mxCell id="8brqG52jJ0TLhpy8n45_-782" value="END" style="rounded=1;whiteSpace=wrap;html=1;strokeColor=#6c8ebf;fontFamily=Times New Roman;fillColor=#dae8fc;strokeWidth=2;fontSize=26;" vertex="1" parent="8brqG52jJ0TLhpy8n45_-764">
          <mxGeometry x="928.75" y="16.75" width="100" height="47.5" as="geometry" />
        </mxCell>
        <mxCell id="8brqG52jJ0TLhpy8n45_-783" value="&lt;span&gt;END&lt;/span&gt;" style="rounded=1;whiteSpace=wrap;html=1;strokeColor=#23445d;fontFamily=Times New Roman;fontSize=22;fillColor=#bac8d3;opacity=40;" vertex="1" parent="8brqG52jJ0TLhpy8n45_-764">
          <mxGeometry x="923.75" y="167.12500000000045" width="110" height="39.15" as="geometry" />
        </mxCell>
        <mxCell id="8brqG52jJ0TLhpy8n45_-784" value="" style="endArrow=none;dashed=1;html=1;rounded=0;entryX=0;entryY=1;entryDx=0;entryDy=0;fillColor=#dae8fc;strokeColor=#6c8ebf;strokeWidth=3;fontFamily=Times New Roman;exitX=0.018;exitY=0.01;exitDx=0;exitDy=0;exitPerimeter=0;" edge="1" parent="8brqG52jJ0TLhpy8n45_-764" source="8brqG52jJ0TLhpy8n45_-765" target="8brqG52jJ0TLhpy8n45_-777">
          <mxGeometry width="50" height="50" relative="1" as="geometry">
            <mxPoint x="20" y="109.70000000000073" as="sourcePoint" />
            <mxPoint x="560" y="-86.2999999999995" as="targetPoint" />
          </mxGeometry>
        </mxCell>
        <mxCell id="8brqG52jJ0TLhpy8n45_-785" value="" style="endArrow=none;dashed=1;html=1;rounded=0;exitX=1;exitY=1;exitDx=0;exitDy=0;strokeWidth=3;fillColor=#dae8fc;strokeColor=#6c8ebf;fontFamily=Times New Roman;entryX=0.965;entryY=0.01;entryDx=0;entryDy=0;entryPerimeter=0;" edge="1" parent="8brqG52jJ0TLhpy8n45_-764" source="8brqG52jJ0TLhpy8n45_-777" target="8brqG52jJ0TLhpy8n45_-765">
          <mxGeometry width="50" height="50" relative="1" as="geometry">
            <mxPoint x="510" y="-36.29999999999927" as="sourcePoint" />
            <mxPoint x="1100" y="110" as="targetPoint" />
          </mxGeometry>
        </mxCell>
        <mxCell id="8brqG52jJ0TLhpy8n45_-786" value="" style="endArrow=classic;html=1;rounded=0;entryX=0.5;entryY=0;entryDx=0;entryDy=0;fontFamily=Times New Roman;" edge="1" parent="8brqG52jJ0TLhpy8n45_-764">
          <mxGeometry width="50" height="50" relative="1" as="geometry">
            <mxPoint x="4.5" y="186.28000000000065" as="sourcePoint" />
            <mxPoint x="55" y="186.51000000000022" as="targetPoint" />
            <Array as="points" />
          </mxGeometry>
        </mxCell>
        <mxCell id="8brqG52jJ0TLhpy8n45_-908" style="edgeStyle=orthogonalEdgeStyle;rounded=0;orthogonalLoop=1;jettySize=auto;html=1;exitX=1;exitY=0.5;exitDx=0;exitDy=0;entryX=0;entryY=0.5;entryDx=0;entryDy=0;" edge="1" parent="8brqG52jJ0TLhpy8n45_-764" source="8brqG52jJ0TLhpy8n45_-787" target="8brqG52jJ0TLhpy8n45_-775">
          <mxGeometry relative="1" as="geometry" />
        </mxCell>
        <mxCell id="8brqG52jJ0TLhpy8n45_-787" value="&lt;div&gt;Buffer init position&lt;/div&gt;" style="rounded=0;whiteSpace=wrap;html=1;strokeColor=#9673a6;fontFamily=Times New Roman;fontSize=22;strokeWidth=4;fillColor=#e1d5e7;align=center;verticalAlign=middle;" vertex="1" parent="8brqG52jJ0TLhpy8n45_-764">
          <mxGeometry x="311" y="151.7" width="181" height="70" as="geometry" />
        </mxCell>
        <mxCell id="8brqG52jJ0TLhpy8n45_-788" value="&lt;mxGraphModel&gt;&lt;root&gt;&lt;mxCell id=&quot;0&quot;/&gt;&lt;mxCell id=&quot;1&quot; parent=&quot;0&quot;/&gt;&lt;mxCell id=&quot;2&quot; value=&quot;&amp;lt;font style=&amp;quot;font-size: 26px;&amp;quot;&amp;gt;BalanceOper&amp;lt;/font&amp;gt;&quot; style=&quot;text;html=1;align=center;verticalAlign=middle;whiteSpace=wrap;rounded=0;fontFamily=Times New Roman;&quot; vertex=&quot;1&quot; parent=&quot;1&quot;&gt;&lt;mxGeometry x=&quot;49&quot; y=&quot;251&quot; width=&quot;113.1&quot; height=&quot;42&quot; as=&quot;geometry&quot;/&gt;&lt;/mxCell&gt;&lt;mxCell id=&quot;3&quot; value=&quot;&quot; style=&quot;rounded=1;whiteSpace=wrap;html=1;fillColor=none;glass=0;dashed=1;dashPattern=12 12;strokeWidth=2;strokeColor=#000099;fontFamily=Times New Roman;&quot; vertex=&quot;1&quot; parent=&quot;1&quot;&gt;&lt;mxGeometry x=&quot;-7.66&quot; y=&quot;290&quot; width=&quot;412&quot; height=&quot;516.04&quot; as=&quot;geometry&quot;/&gt;&lt;/mxCell&gt;&lt;mxCell id=&quot;4&quot; style=&quot;rounded=0;orthogonalLoop=1;jettySize=auto;html=1;exitX=1;exitY=0.5;exitDx=0;exitDy=0;entryX=-0.006;entryY=0.584;entryDx=0;entryDy=0;entryPerimeter=0;fontFamily=Times New Roman;&quot; edge=&quot;1&quot; source=&quot;6&quot; target=&quot;110&quot; parent=&quot;1&quot;&gt;&lt;mxGeometry relative=&quot;1&quot; as=&quot;geometry&quot;/&gt;&lt;/mxCell&gt;&lt;mxCell id=&quot;5&quot; style=&quot;rounded=0;orthogonalLoop=1;jettySize=auto;html=1;exitX=1;exitY=0.5;exitDx=0;exitDy=0;entryX=0;entryY=0.5;entryDx=0;entryDy=0;fontFamily=Times New Roman;&quot; edge=&quot;1&quot; source=&quot;6&quot; target=&quot;58&quot; parent=&quot;1&quot;&gt;&lt;mxGeometry relative=&quot;1&quot; as=&quot;geometry&quot;/&gt;&lt;/mxCell&gt;&lt;mxCell id=&quot;6&quot; value=&quot;&quot; style=&quot;rounded=1;whiteSpace=wrap;html=1;fillColor=#f5f5f5;strokeWidth=2;fontColor=#333333;strokeColor=#666666;rotation=90;container=0;fontFamily=Times New Roman;&quot; vertex=&quot;1&quot; parent=&quot;1&quot;&gt;&lt;mxGeometry x=&quot;96.4879819119949&quot; y=&quot;313.68685376661745&quot; width=&quot;198.5821786770247&quot; height=&quot;172.55539143279174&quot; as=&quot;geometry&quot;/&gt;&lt;/mxCell&gt;&lt;mxCell id=&quot;7&quot; value=&quot;&quot; style=&quot;rounded=0;whiteSpace=wrap;html=1;fillColor=#d5e8d4;strokeColor=#82b366;container=0;rotation=90;fontFamily=Times New Roman;&quot; vertex=&quot;1&quot; parent=&quot;1&quot;&gt;&lt;mxGeometry x=&quot;255.35372485361466&quot; y=&quot;405.4549483013294&quot; width=&quot;22.730021682416364&quot; height=&quot;10.609466315586669&quot; as=&quot;geometry&quot;/&gt;&lt;/mxCell&gt;&lt;mxCell id=&quot;8&quot; value=&quot;&quot; style=&quot;rounded=0;whiteSpace=wrap;html=1;fillColor=#d5e8d4;strokeColor=#82b366;container=0;rotation=90;fontFamily=Times New Roman;&quot; vertex=&quot;1&quot; parent=&quot;1&quot;&gt;&lt;mxGeometry x=&quot;245.42461591976343&quot; y=&quot;405.4549483013294&quot; width=&quot;22.730021682416364&quot; height=&quot;10.609466315586669&quot; as=&quot;geometry&quot;/&gt;&lt;/mxCell&gt;&lt;mxCell id=&quot;9&quot; value=&quot;&quot; style=&quot;rounded=0;whiteSpace=wrap;html=1;fillColor=#d5e8d4;strokeColor=#82b366;container=0;rotation=90;fontFamily=Times New Roman;&quot; vertex=&quot;1&quot; parent=&quot;1&quot;&gt;&lt;mxGeometry x=&quot;234.73172937561594&quot; y=&quot;405.4549483013294&quot; width=&quot;22.730021682416364&quot; height=&quot;10.609466315586669&quot; as=&quot;geometry&quot;/&gt;&lt;/mxCell&gt;&lt;mxCell id=&quot;10&quot; value=&quot;&quot; style=&quot;rounded=0;whiteSpace=wrap;html=1;fillColor=#d5e8d4;strokeColor=#82b366;container=0;rotation=90;fontFamily=Times New Roman;&quot; vertex=&quot;1&quot; parent=&quot;1&quot;&gt;&lt;mxGeometry x=&quot;224.8026204417647&quot; y=&quot;405.4549483013294&quot; width=&quot;22.730021682416364&quot; height=&quot;10.609466315586669&quot; as=&quot;geometry&quot;/&gt;&lt;/mxCell&gt;&lt;mxCell id=&quot;11&quot; value=&quot;&quot; style=&quot;rounded=0;whiteSpace=wrap;html=1;fillColor=#d5e8d4;strokeColor=#82b366;container=0;rotation=90;fontFamily=Times New Roman;&quot; vertex=&quot;1&quot; parent=&quot;1&quot;&gt;&lt;mxGeometry x=&quot;208.76329062554348&quot; y=&quot;405.4549483013294&quot; width=&quot;22.730021682416364&quot; height=&quot;10.609466315586669&quot; as=&quot;geometry&quot;/&gt;&lt;/mxCell&gt;&lt;mxCell id=&quot;12&quot; value=&quot;&quot; style=&quot;rounded=0;whiteSpace=wrap;html=1;fillColor=#d5e8d4;strokeColor=#82b366;container=0;rotation=90;fontFamily=Times New Roman;&quot; vertex=&quot;1&quot; parent=&quot;1&quot;&gt;&lt;mxGeometry x=&quot;198.8341816916922&quot; y=&quot;405.4549483013294&quot; width=&quot;22.730021682416364&quot; height=&quot;10.609466315586669&quot; as=&quot;geometry&quot;/&gt;&lt;/mxCell&gt;&lt;mxCell id=&quot;13&quot; value=&quot;&quot; style=&quot;rounded=0;whiteSpace=wrap;html=1;fillColor=#d5e8d4;strokeColor=#82b366;container=0;rotation=90;fontFamily=Times New Roman;&quot; vertex=&quot;1&quot; parent=&quot;1&quot;&gt;&lt;mxGeometry x=&quot;188.14129514754475&quot; y=&quot;405.4549483013294&quot; width=&quot;22.730021682416364&quot; height=&quot;10.609466315586669&quot; as=&quot;geometry&quot;/&gt;&lt;/mxCell&gt;&lt;mxCell id=&quot;14&quot; value=&quot;&quot; style=&quot;rounded=0;whiteSpace=wrap;html=1;fillColor=#d5e8d4;strokeColor=#82b366;container=0;rotation=90;fontFamily=Times New Roman;&quot; vertex=&quot;1&quot; parent=&quot;1&quot;&gt;&lt;mxGeometry x=&quot;234.73172937561594&quot; y=&quot;436.8286558345642&quot; width=&quot;22.730021682416364&quot; height=&quot;10.609466315586669&quot; as=&quot;geometry&quot;/&gt;&lt;/mxCell&gt;&lt;mxCell id=&quot;15&quot; value=&quot;&quot; style=&quot;rounded=0;whiteSpace=wrap;html=1;fillColor=#d5e8d4;strokeColor=#82b366;container=0;rotation=90;fontFamily=Times New Roman;&quot; vertex=&quot;1&quot; parent=&quot;1&quot;&gt;&lt;mxGeometry x=&quot;224.8026204417647&quot; y=&quot;436.8286558345642&quot; width=&quot;22.730021682416364&quot; height=&quot;10.609466315586669&quot; as=&quot;geometry&quot;/&gt;&lt;/mxCell&gt;&lt;mxCell id=&quot;16&quot; value=&quot;&quot; style=&quot;rounded=0;whiteSpace=wrap;html=1;fillColor=#d5e8d4;strokeColor=#82b366;container=0;rotation=90;fontFamily=Times New Roman;&quot; vertex=&quot;1&quot; parent=&quot;1&quot;&gt;&lt;mxGeometry x=&quot;214.10973389761722&quot; y=&quot;436.8286558345642&quot; width=&quot;22.730021682416364&quot; height=&quot;10.609466315586669&quot; as=&quot;geometry&quot;/&gt;&lt;/mxCell&gt;&lt;mxCell id=&quot;17&quot; value=&quot;&quot; style=&quot;rounded=0;whiteSpace=wrap;html=1;fillColor=#f8cecc;strokeColor=#b85450;container=0;rotation=90;fontFamily=Times New Roman;&quot; vertex=&quot;1&quot; parent=&quot;1&quot;&gt;&lt;mxGeometry x=&quot;195.01529364021098&quot; y=&quot;370.94387001477105&quot; width=&quot;22.730021682416364&quot; height=&quot;10.609466315586669&quot; as=&quot;geometry&quot;/&gt;&lt;/mxCell&gt;&lt;mxCell id=&quot;18&quot; value=&quot;&quot; style=&quot;rounded=0;whiteSpace=wrap;html=1;fillColor=#f8cecc;strokeColor=#b85450;container=0;rotation=90;fontFamily=Times New Roman;&quot; vertex=&quot;1&quot; parent=&quot;1&quot;&gt;&lt;mxGeometry x=&quot;165.22796683865727&quot; y=&quot;340.3545051698671&quot; width=&quot;22.730021682416364&quot; height=&quot;10.609466315586669&quot; as=&quot;geometry&quot;/&gt;&lt;/mxCell&gt;&lt;mxCell id=&quot;19&quot; value=&quot;&quot; style=&quot;rounded=0;whiteSpace=wrap;html=1;fillColor=#f8cecc;strokeColor=#b85450;container=0;rotation=90;fontFamily=Times New Roman;&quot; vertex=&quot;1&quot; parent=&quot;1&quot;&gt;&lt;mxGeometry x=&quot;154.5350802945098&quot; y=&quot;340.3545051698671&quot; width=&quot;22.730021682416364&quot; height=&quot;10.609466315586669&quot; as=&quot;geometry&quot;/&gt;&lt;/mxCell&gt;&lt;mxCell id=&quot;20&quot; value=&quot;&quot; style=&quot;rounded=0;whiteSpace=wrap;html=1;fillColor=#f8cecc;strokeColor=#b85450;container=0;rotation=90;fontFamily=Times New Roman;&quot; vertex=&quot;1&quot; parent=&quot;1&quot;&gt;&lt;mxGeometry x=&quot;144.60597136065857&quot; y=&quot;340.3545051698671&quot; width=&quot;22.730021682416364&quot; height=&quot;10.609466315586669&quot; as=&quot;geometry&quot;/&gt;&lt;/mxCell&gt;&lt;mxCell id=&quot;21&quot; value=&quot;&quot; style=&quot;rounded=0;whiteSpace=wrap;html=1;fillColor=#f8cecc;strokeColor=#b85450;container=0;rotation=90;fontFamily=Times New Roman;&quot; vertex=&quot;1&quot; parent=&quot;1&quot;&gt;&lt;mxGeometry x=&quot;133.9130848165111&quot; y=&quot;340.3545051698671&quot; width=&quot;22.730021682416364&quot; height=&quot;10.609466315586669&quot; as=&quot;geometry&quot;/&gt;&lt;/mxCell&gt;&lt;mxCell id=&quot;22&quot; value=&quot;&quot; style=&quot;rounded=0;whiteSpace=wrap;html=1;fillColor=#f8cecc;strokeColor=#b85450;container=0;rotation=90;fontFamily=Times New Roman;&quot; vertex=&quot;1&quot; parent=&quot;1&quot;&gt;&lt;mxGeometry x=&quot;146.8973041915473&quot; y=&quot;317.6085672082718&quot; width=&quot;22.730021682416364&quot; height=&quot;10.609466315586669&quot; as=&quot;geometry&quot;/&gt;&lt;/mxCell&gt;&lt;mxCell id=&quot;23&quot; value=&quot;&quot; style=&quot;rounded=0;whiteSpace=wrap;html=1;fillColor=#f8cecc;strokeColor=#b85450;container=0;rotation=90;fontFamily=Times New Roman;&quot; vertex=&quot;1&quot; parent=&quot;1&quot;&gt;&lt;mxGeometry x=&quot;123.98397588265985&quot; y=&quot;317.6085672082718&quot; width=&quot;22.730021682416364&quot; height=&quot;10.609466315586669&quot; as=&quot;geometry&quot;/&gt;&lt;/mxCell&gt;&lt;mxCell id=&quot;24&quot; value=&quot;&quot; style=&quot;rounded=0;whiteSpace=wrap;html=1;fillColor=#f8cecc;strokeColor=#b85450;container=0;rotation=90;fontFamily=Times New Roman;&quot; vertex=&quot;1&quot; parent=&quot;1&quot;&gt;&lt;mxGeometry x=&quot;120.92886544147484&quot; y=&quot;363.8847858197932&quot; width=&quot;22.730021682416364&quot; height=&quot;10.609466315586669&quot; as=&quot;geometry&quot;/&gt;&lt;/mxCell&gt;&lt;mxCell id=&quot;25&quot; value=&quot;&quot; style=&quot;rounded=0;whiteSpace=wrap;html=1;fillColor=#f8cecc;strokeColor=#b85450;container=0;rotation=90;fontFamily=Times New Roman;&quot; vertex=&quot;1&quot; parent=&quot;1&quot;&gt;&lt;mxGeometry x=&quot;144.60597136065857&quot; y=&quot;367.0221565731167&quot; width=&quot;22.730021682416364&quot; height=&quot;10.609466315586669&quot; as=&quot;geometry&quot;/&gt;&lt;/mxCell&gt;&lt;mxCell id=&quot;26&quot; value=&quot;&quot; style=&quot;rounded=0;whiteSpace=wrap;html=1;fillColor=#f8cecc;strokeColor=#b85450;container=0;rotation=90;fontFamily=Times New Roman;&quot; vertex=&quot;1&quot; parent=&quot;1&quot;&gt;&lt;mxGeometry x=&quot;162.1728563974723&quot; y=&quot;367.0221565731167&quot; width=&quot;22.730021682416364&quot; height=&quot;10.609466315586669&quot; as=&quot;geometry&quot;/&gt;&lt;/mxCell&gt;&lt;mxCell id=&quot;27&quot; value=&quot;&quot; style=&quot;rounded=0;whiteSpace=wrap;html=1;fillColor=#fff2cc;strokeColor=#d6b656;container=0;rotation=90;fontFamily=Times New Roman;&quot; vertex=&quot;1&quot; parent=&quot;1&quot;&gt;&lt;mxGeometry x=&quot;146.8973041915473&quot; y=&quot;405.4549483013294&quot; width=&quot;22.730021682416364&quot; height=&quot;10.609466315586669&quot; as=&quot;geometry&quot;/&gt;&lt;/mxCell&gt;&lt;mxCell id=&quot;28&quot; value=&quot;&quot; style=&quot;rounded=0;whiteSpace=wrap;html=1;fillColor=#fff2cc;strokeColor=#d6b656;container=0;rotation=90;fontFamily=Times New Roman;&quot; vertex=&quot;1&quot; parent=&quot;1&quot;&gt;&lt;mxGeometry x=&quot;135.44064003710358&quot; y=&quot;391.3367799113737&quot; width=&quot;22.730021682416364&quot; height=&quot;10.609466315586669&quot; as=&quot;geometry&quot;/&gt;&lt;/mxCell&gt;&lt;mxCell id=&quot;29&quot; value=&quot;&quot; style=&quot;rounded=0;whiteSpace=wrap;html=1;fillColor=#fff2cc;strokeColor=#d6b656;container=0;rotation=90;fontFamily=Times New Roman;&quot; vertex=&quot;1&quot; parent=&quot;1&quot;&gt;&lt;mxGeometry x=&quot;157.5901907356948&quot; y=&quot;428.9852289512555&quot; width=&quot;22.730021682416364&quot; height=&quot;10.609466315586669&quot; as=&quot;geometry&quot;/&gt;&lt;/mxCell&gt;&lt;mxCell id=&quot;30&quot; value=&quot;&quot; style=&quot;rounded=0;whiteSpace=wrap;html=1;fillColor=#d5e8d4;strokeColor=#82b366;container=0;rotation=90;fontFamily=Times New Roman;&quot; vertex=&quot;1&quot; parent=&quot;1&quot;&gt;&lt;mxGeometry x=&quot;204.18062496376598&quot; y=&quot;436.8286558345642&quot; width=&quot;22.730021682416364&quot; height=&quot;10.609466315586669&quot; as=&quot;geometry&quot;/&gt;&lt;/mxCell&gt;&lt;mxCell id=&quot;31&quot; value=&quot;&quot; style=&quot;rounded=0;whiteSpace=wrap;html=1;fillColor=#fff2cc;strokeColor=#d6b656;container=0;rotation=90;fontFamily=Times New Roman;&quot; vertex=&quot;1&quot; parent=&quot;1&quot;&gt;&lt;mxGeometry x=&quot;141.55086091947356&quot; y=&quot;428.9852289512555&quot; width=&quot;22.730021682416364&quot; height=&quot;10.609466315586669&quot; as=&quot;geometry&quot;/&gt;&lt;/mxCell&gt;&lt;mxCell id=&quot;32&quot; value=&quot;&quot; style=&quot;rounded=0;whiteSpace=wrap;html=1;fillColor=#f8cecc;strokeColor=#b85450;container=0;rotation=90;fontFamily=Times New Roman;&quot; vertex=&quot;1&quot; parent=&quot;1&quot;&gt;&lt;mxGeometry x=&quot;162.1728563974723&quot; y=&quot;312.1181683899557&quot; width=&quot;22.730021682416364&quot; height=&quot;10.609466315586669&quot; as=&quot;geometry&quot;/&gt;&lt;/mxCell&gt;&lt;mxCell id=&quot;33&quot; value=&quot;&quot; style=&quot;rounded=0;whiteSpace=wrap;html=1;fillColor=#f8cecc;strokeColor=#b85450;container=0;rotation=90;fontFamily=Times New Roman;&quot; vertex=&quot;1&quot; parent=&quot;1&quot;&gt;&lt;mxGeometry x=&quot;113.29108933851236&quot; y=&quot;317.6085672082718&quot; width=&quot;22.730021682416364&quot; height=&quot;10.609466315586669&quot; as=&quot;geometry&quot;/&gt;&lt;/mxCell&gt;&lt;mxCell id=&quot;34&quot; value=&quot;&quot; style=&quot;rounded=0;whiteSpace=wrap;html=1;fillColor=#fff2cc;strokeColor=#d6b656;container=0;rotation=90;fontFamily=Times New Roman;&quot; vertex=&quot;1&quot; parent=&quot;1&quot;&gt;&lt;mxGeometry x=&quot;162.1728563974723&quot; y=&quot;405.4549483013294&quot; width=&quot;22.730021682416364&quot; height=&quot;10.609466315586669&quot; as=&quot;geometry&quot;/&gt;&lt;/mxCell&gt;&lt;mxCell id=&quot;35&quot; value=&quot;&quot; style=&quot;rounded=0;whiteSpace=wrap;html=1;fillColor=#d5e8d4;strokeColor=#82b366;container=0;rotation=90;fontFamily=Times New Roman;&quot; vertex=&quot;1&quot; parent=&quot;1&quot;&gt;&lt;mxGeometry x=&quot;178.2121862136935&quot; y=&quot;428.9852289512555&quot; width=&quot;22.730021682416364&quot; height=&quot;10.609466315586669&quot; as=&quot;geometry&quot;/&gt;&lt;/mxCell&gt;&lt;mxCell id=&quot;36&quot; value=&quot;&quot; style=&quot;rounded=0;whiteSpace=wrap;html=1;fillColor=#fff2cc;strokeColor=#d6b656;container=0;rotation=90;fontFamily=Times New Roman;&quot; vertex=&quot;1&quot; parent=&quot;1&quot;&gt;&lt;mxGeometry x=&quot;131.62175198562232&quot; y=&quot;428.9852289512555&quot; width=&quot;22.730021682416364&quot; height=&quot;10.609466315586669&quot; as=&quot;geometry&quot;/&gt;&lt;/mxCell&gt;&lt;mxCell id=&quot;37&quot; value=&quot;&amp;lt;span style=&amp;quot;color: rgba(0, 0, 0, 0); font-size: 0px; text-align: start; text-wrap: nowrap;&amp;quot;&amp;gt;%3CmxGraphModel%3E%3Croot%3E%3CmxCell%20id%3D%220%22%2F%3E%3CmxCell%20id%3D%221%22%20parent%3D%220%22%2F%3E%3CmxCell%20id%3D%222%22%20value%3D%22%22%20style%3D%22rounded%3D0%3BwhiteSpace%3Dwrap%3Bhtml%3D1%3BfillColor%3D%23dae8fc%3BstrokeColor%3D%236c8ebf%3B%22%20vertex%3D%221%22%20parent%3D%221%22%3E%3CmxGeometry%20x%3D%22610%22%20y%3D%22480%22%20width%3D%2290%22%20height%3D%2240%22%20as%3D%22geometry%22%2F%3E%3C%2FmxCell%3E%3C%2Froot%3E%3C%2FmxGraphModel%3E&amp;lt;/span&amp;gt;&quot; style=&quot;rounded=0;whiteSpace=wrap;html=1;fillColor=#fff2cc;strokeColor=#d6b656;container=0;rotation=90;fontFamily=Times New Roman;&quot; vertex=&quot;1&quot; parent=&quot;1&quot;&gt;&lt;mxGeometry x=&quot;149.18863702243607&quot; y=&quot;454.86853766617423&quot; width=&quot;22.730021682416364&quot; height=&quot;10.609466315586669&quot; as=&quot;geometry&quot;/&gt;&lt;/mxCell&gt;&lt;mxCell id=&quot;38&quot; value=&quot;&amp;lt;span style=&amp;quot;color: rgba(0, 0, 0, 0); font-size: 0px; text-align: start; text-wrap: nowrap;&amp;quot;&amp;gt;%3CmxGraphModel%3E%3Croot%3E%3CmxCell%20id%3D%220%22%2F%3E%3CmxCell%20id%3D%221%22%20parent%3D%220%22%2F%3E%3CmxCell%20id%3D%222%22%20value%3D%22%22%20style%3D%22rounded%3D0%3BwhiteSpace%3Dwrap%3Bhtml%3D1%3BfillColor%3D%23dae8fc%3BstrokeColor%3D%236c8ebf%3B%22%20vertex%3D%221%22%20parent%3D%221%22%3E%3CmxGeometry%20x%3D%22610%22%20y%3D%22480%22%20width%3D%2290%22%20height%3D%2240%22%20as%3D%22geometry%22%2F%3E%3C%2FmxCell%3E%3C%2Froot%3E%3C%2FmxGraphModel%3E&amp;lt;/span&amp;gt;&quot; style=&quot;rounded=0;whiteSpace=wrap;html=1;fillColor=#fff2cc;strokeColor=#d6b656;container=0;rotation=90;fontFamily=Times New Roman;&quot; vertex=&quot;1&quot; parent=&quot;1&quot;&gt;&lt;mxGeometry x=&quot;139.25952808858483&quot; y=&quot;454.86853766617423&quot; width=&quot;22.730021682416364&quot; height=&quot;10.609466315586669&quot; as=&quot;geometry&quot;/&gt;&lt;/mxCell&gt;&lt;mxCell id=&quot;39&quot; value=&quot;&amp;lt;span style=&amp;quot;color: rgba(0, 0, 0, 0); font-size: 0px; text-align: start; text-wrap: nowrap;&amp;quot;&amp;gt;%3CmxGraphModel%3E%3Croot%3E%3CmxCell%20id%3D%220%22%2F%3E%3CmxCell%20id%3D%221%22%20parent%3D%220%22%2F%3E%3CmxCell%20id%3D%222%22%20value%3D%22%22%20style%3D%22rounded%3D0%3BwhiteSpace%3Dwrap%3Bhtml%3D1%3BfillColor%3D%23dae8fc%3BstrokeColor%3D%236c8ebf%3B%22%20vertex%3D%221%22%20parent%3D%221%22%3E%3CmxGeometry%20x%3D%22610%22%20y%3D%22480%22%20width%3D%2290%22%20height%3D%2240%22%20as%3D%22geometry%22%2F%3E%3C%2FmxCell%3E%3C%2Froot%3E%3C%2FmxGraphModel%3E&amp;lt;/span&amp;gt;&quot; style=&quot;rounded=0;whiteSpace=wrap;html=1;fillColor=#fff2cc;strokeColor=#d6b656;container=0;rotation=90;fontFamily=Times New Roman;&quot; vertex=&quot;1&quot; parent=&quot;1&quot;&gt;&lt;mxGeometry x=&quot;128.56664154443735&quot; y=&quot;454.86853766617423&quot; width=&quot;22.730021682416364&quot; height=&quot;10.609466315586669&quot; as=&quot;geometry&quot;/&gt;&lt;/mxCell&gt;&lt;mxCell id=&quot;40&quot; value=&quot;&amp;lt;span style=&amp;quot;color: rgba(0, 0, 0, 0); font-size: 0px; text-align: start; text-wrap: nowrap;&amp;quot;&amp;gt;%3CmxGraphModel%3E%3Croot%3E%3CmxCell%20id%3D%220%22%2F%3E%3CmxCell%20id%3D%221%22%20parent%3D%220%22%2F%3E%3CmxCell%20id%3D%222%22%20value%3D%22%22%20style%3D%22rounded%3D0%3BwhiteSpace%3Dwrap%3Bhtml%3D1%3BfillColor%3D%23dae8fc%3BstrokeColor%3D%236c8ebf%3B%22%20vertex%3D%221%22%20parent%3D%221%22%3E%3CmxGeometry%20x%3D%22610%22%20y%3D%22480%22%20width%3D%2290%22%20height%3D%2240%22%20as%3D%22geometry%22%2F%3E%3C%2FmxCell%3E%3C%2Froot%3E%3C%2FmxGraphModel%3E&amp;lt;/span&amp;gt;&quot; style=&quot;rounded=0;whiteSpace=wrap;html=1;fillColor=#fff2cc;strokeColor=#d6b656;container=0;rotation=90;fontFamily=Times New Roman;&quot; vertex=&quot;1&quot; parent=&quot;1&quot;&gt;&lt;mxGeometry x=&quot;118.6375326105861&quot; y=&quot;454.86853766617423&quot; width=&quot;22.730021682416364&quot; height=&quot;10.609466315586669&quot; as=&quot;geometry&quot;/&gt;&lt;/mxCell&gt;&lt;mxCell id=&quot;41&quot; value=&quot;&amp;lt;span style=&amp;quot;color: rgba(0, 0, 0, 0); font-size: 0px; text-align: start; text-wrap: nowrap;&amp;quot;&amp;gt;%3CmxGraphModel%3E%3Croot%3E%3CmxCell%20id%3D%220%22%2F%3E%3CmxCell%20id%3D%221%22%20parent%3D%220%22%2F%3E%3CmxCell%20id%3D%222%22%20value%3D%22%22%20style%3D%22rounded%3D0%3BwhiteSpace%3Dwrap%3Bhtml%3D1%3BfillColor%3D%23dae8fc%3BstrokeColor%3D%236c8ebf%3B%22%20vertex%3D%221%22%20parent%3D%221%22%3E%3CmxGeometry%20x%3D%22610%22%20y%3D%22480%22%20width%3D%2290%22%20height%3D%2240%22%20as%3D%22geometry%22%2F%3E%3C%2FmxCell%3E%3C%2Froot%3E%3C%2FmxGraphModel%3E&amp;lt;/span&amp;gt;&quot; style=&quot;rounded=0;whiteSpace=wrap;html=1;fillColor=#fff2cc;strokeColor=#d6b656;container=0;rotation=90;fontFamily=Times New Roman;&quot; vertex=&quot;1&quot; parent=&quot;1&quot;&gt;&lt;mxGeometry x=&quot;113.29108933851236&quot; y=&quot;428.9852289512555&quot; width=&quot;22.730021682416364&quot; height=&quot;10.609466315586669&quot; as=&quot;geometry&quot;/&gt;&lt;/mxCell&gt;&lt;mxCell id=&quot;42&quot; value=&quot;&amp;lt;span style=&amp;quot;color: rgba(0, 0, 0, 0); font-size: 0px; text-align: start; text-wrap: nowrap;&amp;quot;&amp;gt;%3CmxGraphModel%3E%3Croot%3E%3CmxCell%20id%3D%220%22%2F%3E%3CmxCell%20id%3D%221%22%20parent%3D%220%22%2F%3E%3CmxCell%20id%3D%222%22%20value%3D%22%22%20style%3D%22rounded%3D0%3BwhiteSpace%3Dwrap%3Bhtml%3D1%3BfillColor%3D%23dae8fc%3BstrokeColor%3D%236c8ebf%3B%22%20vertex%3D%221%22%20parent%3D%221%22%3E%3CmxGeometry%20x%3D%22610%22%20y%3D%22480%22%20width%3D%2290%22%20height%3D%2240%22%20as%3D%22geometry%22%2F%3E%3C%2FmxCell%3E%3C%2Froot%3E%3C%2FmxGraphModel%3E&amp;lt;/span&amp;gt;&quot; style=&quot;rounded=0;whiteSpace=wrap;html=1;fillColor=#fff2cc;strokeColor=#d6b656;container=0;rotation=90;fontFamily=Times New Roman;&quot; vertex=&quot;1&quot; parent=&quot;1&quot;&gt;&lt;mxGeometry x=&quot;139.25952808858483&quot; y=&quot;478.39881831610046&quot; width=&quot;22.730021682416364&quot; height=&quot;10.609466315586669&quot; as=&quot;geometry&quot;/&gt;&lt;/mxCell&gt;&lt;mxCell id=&quot;43&quot; value=&quot;&quot; style=&quot;rounded=0;whiteSpace=wrap;html=1;fillColor=#dae8fc;strokeColor=#6c8ebf;container=0;rotation=90;fontFamily=Times New Roman;&quot; vertex=&quot;1&quot; parent=&quot;1&quot;&gt;&lt;mxGeometry x=&quot;245.42461591976343&quot; y=&quot;312.1181683899557&quot; width=&quot;22.730021682416364&quot; height=&quot;10.609466315586669&quot; as=&quot;geometry&quot;/&gt;&lt;/mxCell&gt;&lt;mxCell id=&quot;44&quot; value=&quot;&quot; style=&quot;rounded=0;whiteSpace=wrap;html=1;fillColor=#dae8fc;strokeColor=#6c8ebf;container=0;rotation=90;fontFamily=Times New Roman;&quot; vertex=&quot;1&quot; parent=&quot;1&quot;&gt;&lt;mxGeometry x=&quot;234.73172937561594&quot; y=&quot;312.1181683899557&quot; width=&quot;22.730021682416364&quot; height=&quot;10.609466315586669&quot; as=&quot;geometry&quot;/&gt;&lt;/mxCell&gt;&lt;mxCell id=&quot;45&quot; value=&quot;&quot; style=&quot;rounded=0;whiteSpace=wrap;html=1;fillColor=#dae8fc;strokeColor=#6c8ebf;container=0;rotation=90;fontFamily=Times New Roman;&quot; vertex=&quot;1&quot; parent=&quot;1&quot;&gt;&lt;mxGeometry x=&quot;255.35372485361466&quot; y=&quot;340.3545051698671&quot; width=&quot;22.730021682416364&quot; height=&quot;10.609466315586669&quot; as=&quot;geometry&quot;/&gt;&lt;/mxCell&gt;&lt;mxCell id=&quot;46&quot; value=&quot;&quot; style=&quot;rounded=0;whiteSpace=wrap;html=1;fillColor=#dae8fc;strokeColor=#6c8ebf;container=0;rotation=90;fontFamily=Times New Roman;&quot; vertex=&quot;1&quot; parent=&quot;1&quot;&gt;&lt;mxGeometry x=&quot;245.42461591976343&quot; y=&quot;340.3545051698671&quot; width=&quot;22.730021682416364&quot; height=&quot;10.609466315586669&quot; as=&quot;geometry&quot;/&gt;&lt;/mxCell&gt;&lt;mxCell id=&quot;47&quot; value=&quot;&quot; style=&quot;rounded=0;whiteSpace=wrap;html=1;fillColor=#dae8fc;strokeColor=#6c8ebf;container=0;rotation=90;fontFamily=Times New Roman;&quot; vertex=&quot;1&quot; parent=&quot;1&quot;&gt;&lt;mxGeometry x=&quot;224.8026204417647&quot; y=&quot;312.1181683899557&quot; width=&quot;22.730021682416364&quot; height=&quot;10.609466315586669&quot; as=&quot;geometry&quot;/&gt;&lt;/mxCell&gt;&lt;mxCell id=&quot;48&quot; value=&quot;&quot; style=&quot;rounded=0;whiteSpace=wrap;html=1;fillColor=#dae8fc;strokeColor=#6c8ebf;container=0;rotation=90;fontFamily=Times New Roman;&quot; vertex=&quot;1&quot; parent=&quot;1&quot;&gt;&lt;mxGeometry x=&quot;227.09395327265344&quot; y=&quot;340.3545051698671&quot; width=&quot;22.730021682416364&quot; height=&quot;10.609466315586669&quot; as=&quot;geometry&quot;/&gt;&lt;/mxCell&gt;&lt;mxCell id=&quot;49&quot; value=&quot;&quot; style=&quot;rounded=0;whiteSpace=wrap;html=1;fillColor=#dae8fc;strokeColor=#6c8ebf;container=0;rotation=90;fontFamily=Times New Roman;&quot; vertex=&quot;1&quot; parent=&quot;1&quot;&gt;&lt;mxGeometry x=&quot;206.47195779465474&quot; y=&quot;340.3545051698671&quot; width=&quot;22.730021682416364&quot; height=&quot;10.609466315586669&quot; as=&quot;geometry&quot;/&gt;&lt;/mxCell&gt;&lt;mxCell id=&quot;50&quot; value=&quot;&quot; style=&quot;rounded=0;whiteSpace=wrap;html=1;fillColor=#dae8fc;strokeColor=#6c8ebf;container=0;rotation=90;fontFamily=Times New Roman;&quot; vertex=&quot;1&quot; parent=&quot;1&quot;&gt;&lt;mxGeometry x=&quot;196.5428488608035&quot; y=&quot;340.3545051698671&quot; width=&quot;22.730021682416364&quot; height=&quot;10.609466315586669&quot; as=&quot;geometry&quot;/&gt;&lt;/mxCell&gt;&lt;mxCell id=&quot;51&quot; value=&quot;&quot; style=&quot;rounded=0;whiteSpace=wrap;html=1;fillColor=#dae8fc;strokeColor=#6c8ebf;container=0;rotation=90;fontFamily=Times New Roman;&quot; vertex=&quot;1&quot; parent=&quot;1&quot;&gt;&lt;mxGeometry x=&quot;206.47195779465474&quot; y=&quot;312.1181683899557&quot; width=&quot;22.730021682416364&quot; height=&quot;10.609466315586669&quot; as=&quot;geometry&quot;/&gt;&lt;/mxCell&gt;&lt;mxCell id=&quot;52&quot; value=&quot;&quot; style=&quot;rounded=0;whiteSpace=wrap;html=1;fillColor=#dae8fc;strokeColor=#6c8ebf;container=0;rotation=90;fontFamily=Times New Roman;&quot; vertex=&quot;1&quot; parent=&quot;1&quot;&gt;&lt;mxGeometry x=&quot;217.1648443388022&quot; y=&quot;340.3545051698671&quot; width=&quot;22.730021682416364&quot; height=&quot;10.609466315586669&quot; as=&quot;geometry&quot;/&gt;&lt;/mxCell&gt;&lt;mxCell id=&quot;53&quot; value=&quot;&quot; style=&quot;rounded=0;whiteSpace=wrap;html=1;fillColor=#dae8fc;strokeColor=#6c8ebf;container=0;rotation=90;fontFamily=Times New Roman;&quot; vertex=&quot;1&quot; parent=&quot;1&quot;&gt;&lt;mxGeometry x=&quot;185.849962316656&quot; y=&quot;340.3545051698671&quot; width=&quot;22.730021682416364&quot; height=&quot;10.609466315586669&quot; as=&quot;geometry&quot;/&gt;&lt;/mxCell&gt;&lt;mxCell id=&quot;54&quot; value=&quot;&quot; style=&quot;rounded=0;whiteSpace=wrap;html=1;fillColor=#dae8fc;strokeColor=#6c8ebf;container=0;rotation=90;fontFamily=Times New Roman;&quot; vertex=&quot;1&quot; parent=&quot;1&quot;&gt;&lt;mxGeometry x=&quot;196.5428488608035&quot; y=&quot;312.1181683899557&quot; width=&quot;22.730021682416364&quot; height=&quot;10.609466315586669&quot; as=&quot;geometry&quot;/&gt;&lt;/mxCell&gt;&lt;mxCell id=&quot;55&quot; value=&quot;&quot; style=&quot;rounded=1;whiteSpace=wrap;html=1;fillColor=none;strokeWidth=2;glass=0;shadow=1;dashed=1;rotation=90;container=0;fontFamily=Times New Roman;&quot; vertex=&quot;1&quot; parent=&quot;1&quot;&gt;&lt;mxGeometry x=&quot;189.66885036813724&quot; y=&quot;367.0221565731167&quot; width=&quot;32.04047075192765&quot; height=&quot;19.02031019202363&quot; as=&quot;geometry&quot;/&gt;&lt;/mxCell&gt;&lt;mxCell id=&quot;56&quot; value=&quot;&quot; style=&quot;rounded=1;whiteSpace=wrap;html=1;fillColor=none;strokeWidth=2;glass=0;shadow=1;dashed=1;rotation=90;container=0;fontFamily=Times New Roman;&quot; vertex=&quot;1&quot; parent=&quot;1&quot;&gt;&lt;mxGeometry x=&quot;130.09419676502984&quot; y=&quot;388.19940915805023&quot; width=&quot;32.04047075192765&quot; height=&quot;19.02031019202363&quot; as=&quot;geometry&quot;/&gt;&lt;/mxCell&gt;&lt;mxCell id=&quot;57&quot; value=&quot;&quot; style=&quot;rounded=1;whiteSpace=wrap;html=1;fillColor=none;strokeWidth=2;glass=0;shadow=1;dashed=1;rotation=90;container=0;fontFamily=Times New Roman;&quot; vertex=&quot;1&quot; parent=&quot;1&quot;&gt;&lt;mxGeometry x=&quot;181.26729665487855&quot; y=&quot;336.4327917282127&quot; width=&quot;32.04047075192765&quot; height=&quot;19.02031019202363&quot; as=&quot;geometry&quot;/&gt;&lt;/mxCell&gt;&lt;mxCell id=&quot;58&quot; value=&quot;&quot; style=&quot;rounded=1;whiteSpace=wrap;html=1;fillColor=#f5f5f5;fontColor=#333333;strokeColor=#666666;strokeWidth=2;rotation=90;container=0;fontFamily=Times New Roman;&quot; vertex=&quot;1&quot; parent=&quot;1&quot;&gt;&lt;mxGeometry x=&quot;196.66885036813724&quot; y=&quot;586.4047267355982&quot; width=&quot;198.5821786770247&quot; height=&quot;172.55539143279174&quot; as=&quot;geometry&quot;/&gt;&lt;/mxCell&gt;&lt;mxCell id=&quot;59&quot; value=&quot;&quot; style=&quot;rounded=0;whiteSpace=wrap;html=1;fillColor=#d5e8d4;strokeColor=#82b366;container=0;rotation=90;fontFamily=Times New Roman;&quot; vertex=&quot;1&quot; parent=&quot;1&quot;&gt;&lt;mxGeometry x=&quot;354.0070380891645&quot; y=&quot;680.5258493353028&quot; width=&quot;22.730021682416364&quot; height=&quot;10.609466315586669&quot; as=&quot;geometry&quot;/&gt;&lt;/mxCell&gt;&lt;mxCell id=&quot;60&quot; value=&quot;&quot; style=&quot;rounded=0;whiteSpace=wrap;html=1;fillColor=#d5e8d4;strokeColor=#82b366;container=0;rotation=90;fontFamily=Times New Roman;&quot; vertex=&quot;1&quot; parent=&quot;1&quot;&gt;&lt;mxGeometry x=&quot;344.07792915531326&quot; y=&quot;680.5258493353028&quot; width=&quot;22.730021682416364&quot; height=&quot;10.609466315586669&quot; as=&quot;geometry&quot;/&gt;&lt;/mxCell&gt;&lt;mxCell id=&quot;61&quot; value=&quot;&quot; style=&quot;rounded=0;whiteSpace=wrap;html=1;fillColor=#d5e8d4;strokeColor=#82b366;container=0;rotation=90;fontFamily=Times New Roman;&quot; vertex=&quot;1&quot; parent=&quot;1&quot;&gt;&lt;mxGeometry x=&quot;333.3850426111658&quot; y=&quot;680.5258493353028&quot; width=&quot;22.730021682416364&quot; height=&quot;10.609466315586669&quot; as=&quot;geometry&quot;/&gt;&lt;/mxCell&gt;&lt;mxCell id=&quot;62&quot; value=&quot;&quot; style=&quot;rounded=0;whiteSpace=wrap;html=1;fillColor=#d5e8d4;strokeColor=#82b366;container=0;rotation=90;fontFamily=Times New Roman;&quot; vertex=&quot;1&quot; parent=&quot;1&quot;&gt;&lt;mxGeometry x=&quot;323.45593367731453&quot; y=&quot;680.5258493353028&quot; width=&quot;22.730021682416364&quot; height=&quot;10.609466315586669&quot; as=&quot;geometry&quot;/&gt;&lt;/mxCell&gt;&lt;mxCell id=&quot;63&quot; value=&quot;&quot; style=&quot;rounded=0;whiteSpace=wrap;html=1;fillColor=#d5e8d4;strokeColor=#82b366;container=0;rotation=90;fontFamily=Times New Roman;&quot; vertex=&quot;1&quot; parent=&quot;1&quot;&gt;&lt;mxGeometry x=&quot;308.1803814713896&quot; y=&quot;680.5258493353028&quot; width=&quot;22.730021682416364&quot; height=&quot;10.609466315586669&quot; as=&quot;geometry&quot;/&gt;&lt;/mxCell&gt;&lt;mxCell id=&quot;64&quot; value=&quot;&quot; style=&quot;rounded=0;whiteSpace=wrap;html=1;fillColor=#d5e8d4;strokeColor=#82b366;container=0;rotation=90;fontFamily=Times New Roman;&quot; vertex=&quot;1&quot; parent=&quot;1&quot;&gt;&lt;mxGeometry x=&quot;297.4874949272421&quot; y=&quot;680.5258493353028&quot; width=&quot;22.730021682416364&quot; height=&quot;10.609466315586669&quot; as=&quot;geometry&quot;/&gt;&lt;/mxCell&gt;&lt;mxCell id=&quot;65&quot; value=&quot;&quot; style=&quot;rounded=0;whiteSpace=wrap;html=1;fillColor=#d5e8d4;strokeColor=#82b366;container=0;rotation=90;fontFamily=Times New Roman;&quot; vertex=&quot;1&quot; parent=&quot;1&quot;&gt;&lt;mxGeometry x=&quot;287.55838599339086&quot; y=&quot;680.5258493353028&quot; width=&quot;22.730021682416364&quot; height=&quot;10.609466315586669&quot; as=&quot;geometry&quot;/&gt;&lt;/mxCell&gt;&lt;mxCell id=&quot;66&quot; value=&quot;&quot; style=&quot;rounded=0;whiteSpace=wrap;html=1;fillColor=#d5e8d4;strokeColor=#82b366;container=0;rotation=90;fontFamily=Times New Roman;&quot; vertex=&quot;1&quot; parent=&quot;1&quot;&gt;&lt;mxGeometry x=&quot;333.3850426111658&quot; y=&quot;711.8995568685376&quot; width=&quot;22.730021682416364&quot; height=&quot;10.609466315586669&quot; as=&quot;geometry&quot;/&gt;&lt;/mxCell&gt;&lt;mxCell id=&quot;67&quot; value=&quot;&quot; style=&quot;rounded=0;whiteSpace=wrap;html=1;fillColor=#d5e8d4;strokeColor=#82b366;container=0;rotation=90;fontFamily=Times New Roman;&quot; vertex=&quot;1&quot; parent=&quot;1&quot;&gt;&lt;mxGeometry x=&quot;323.45593367731453&quot; y=&quot;711.8995568685376&quot; width=&quot;22.730021682416364&quot; height=&quot;10.609466315586669&quot; as=&quot;geometry&quot;/&gt;&lt;/mxCell&gt;&lt;mxCell id=&quot;68&quot; value=&quot;&quot; style=&quot;rounded=0;whiteSpace=wrap;html=1;fillColor=#d5e8d4;strokeColor=#82b366;container=0;rotation=90;fontFamily=Times New Roman;&quot; vertex=&quot;1&quot; parent=&quot;1&quot;&gt;&lt;mxGeometry x=&quot;312.76304713316705&quot; y=&quot;711.8995568685376&quot; width=&quot;22.730021682416364&quot; height=&quot;10.609466315586669&quot; as=&quot;geometry&quot;/&gt;&lt;/mxCell&gt;&lt;mxCell id=&quot;69&quot; value=&quot;&quot; style=&quot;rounded=0;whiteSpace=wrap;html=1;fillColor=#d5e8d4;strokeColor=#82b366;container=0;rotation=90;fontFamily=Times New Roman;&quot; vertex=&quot;1&quot; parent=&quot;1&quot;&gt;&lt;mxGeometry x=&quot;293.6686068757609&quot; y=&quot;646.0147710487445&quot; width=&quot;22.730021682416364&quot; height=&quot;10.609466315586669&quot; as=&quot;geometry&quot;/&gt;&lt;/mxCell&gt;&lt;mxCell id=&quot;70&quot; value=&quot;&quot; style=&quot;rounded=0;whiteSpace=wrap;html=1;fillColor=#f8cecc;strokeColor=#b85450;container=0;rotation=90;fontFamily=Times New Roman;&quot; vertex=&quot;1&quot; parent=&quot;1&quot;&gt;&lt;mxGeometry x=&quot;263.88128007420715&quot; y=&quot;616.2097488921713&quot; width=&quot;22.730021682416364&quot; height=&quot;10.609466315586669&quot; as=&quot;geometry&quot;/&gt;&lt;/mxCell&gt;&lt;mxCell id=&quot;71&quot; value=&quot;&quot; style=&quot;rounded=0;whiteSpace=wrap;html=1;fillColor=#f8cecc;strokeColor=#b85450;container=0;rotation=90;fontFamily=Times New Roman;&quot; vertex=&quot;1&quot; parent=&quot;1&quot;&gt;&lt;mxGeometry x=&quot;253.18839353005967&quot; y=&quot;616.2097488921713&quot; width=&quot;22.730021682416364&quot; height=&quot;10.609466315586669&quot; as=&quot;geometry&quot;/&gt;&lt;/mxCell&gt;&lt;mxCell id=&quot;72&quot; value=&quot;&quot; style=&quot;rounded=0;whiteSpace=wrap;html=1;fillColor=#f8cecc;strokeColor=#b85450;container=0;rotation=90;fontFamily=Times New Roman;&quot; vertex=&quot;1&quot; parent=&quot;1&quot;&gt;&lt;mxGeometry x=&quot;243.25928459620843&quot; y=&quot;616.2097488921713&quot; width=&quot;22.730021682416364&quot; height=&quot;10.609466315586669&quot; as=&quot;geometry&quot;/&gt;&lt;/mxCell&gt;&lt;mxCell id=&quot;73&quot; value=&quot;&quot; style=&quot;rounded=0;whiteSpace=wrap;html=1;fillColor=#f8cecc;strokeColor=#b85450;container=0;rotation=90;fontFamily=Times New Roman;&quot; vertex=&quot;1&quot; parent=&quot;1&quot;&gt;&lt;mxGeometry x=&quot;232.56639805206095&quot; y=&quot;616.2097488921713&quot; width=&quot;22.730021682416364&quot; height=&quot;10.609466315586669&quot; as=&quot;geometry&quot;/&gt;&lt;/mxCell&gt;&lt;mxCell id=&quot;74&quot; value=&quot;&quot; style=&quot;rounded=0;whiteSpace=wrap;html=1;fillColor=#f8cecc;strokeColor=#b85450;container=0;rotation=90;fontFamily=Times New Roman;&quot; vertex=&quot;1&quot; parent=&quot;1&quot;&gt;&lt;mxGeometry x=&quot;245.5506174270972&quot; y=&quot;592.6794682422451&quot; width=&quot;22.730021682416364&quot; height=&quot;10.609466315586669&quot; as=&quot;geometry&quot;/&gt;&lt;/mxCell&gt;&lt;mxCell id=&quot;75&quot; value=&quot;&quot; style=&quot;rounded=0;whiteSpace=wrap;html=1;fillColor=#f8cecc;strokeColor=#b85450;container=0;rotation=90;fontFamily=Times New Roman;&quot; vertex=&quot;1&quot; parent=&quot;1&quot;&gt;&lt;mxGeometry x=&quot;222.63728911820974&quot; y=&quot;592.6794682422451&quot; width=&quot;22.730021682416364&quot; height=&quot;10.609466315586669&quot; as=&quot;geometry&quot;/&gt;&lt;/mxCell&gt;&lt;mxCell id=&quot;76&quot; value=&quot;&quot; style=&quot;rounded=0;whiteSpace=wrap;html=1;fillColor=#f8cecc;strokeColor=#b85450;container=0;rotation=90;fontFamily=Times New Roman;&quot; vertex=&quot;1&quot; parent=&quot;1&quot;&gt;&lt;mxGeometry x=&quot;219.5821786770247&quot; y=&quot;638.9556868537666&quot; width=&quot;22.730021682416364&quot; height=&quot;10.609466315586669&quot; as=&quot;geometry&quot;/&gt;&lt;/mxCell&gt;&lt;mxCell id=&quot;77&quot; value=&quot;&quot; style=&quot;rounded=0;whiteSpace=wrap;html=1;fillColor=#f8cecc;strokeColor=#b85450;container=0;rotation=90;fontFamily=Times New Roman;&quot; vertex=&quot;1&quot; parent=&quot;1&quot;&gt;&lt;mxGeometry x=&quot;243.25928459620843&quot; y=&quot;642.09305760709&quot; width=&quot;22.730021682416364&quot; height=&quot;10.609466315586669&quot; as=&quot;geometry&quot;/&gt;&lt;/mxCell&gt;&lt;mxCell id=&quot;78&quot; value=&quot;&quot; style=&quot;rounded=0;whiteSpace=wrap;html=1;fillColor=#f8cecc;strokeColor=#b85450;container=0;rotation=90;fontFamily=Times New Roman;&quot; vertex=&quot;1&quot; parent=&quot;1&quot;&gt;&lt;mxGeometry x=&quot;260.8261696330222&quot; y=&quot;642.09305760709&quot; width=&quot;22.730021682416364&quot; height=&quot;10.609466315586669&quot; as=&quot;geometry&quot;/&gt;&lt;/mxCell&gt;&lt;mxCell id=&quot;79&quot; value=&quot;&quot; style=&quot;rounded=0;whiteSpace=wrap;html=1;fillColor=#fff2cc;strokeColor=#d6b656;container=0;rotation=90;fontFamily=Times New Roman;&quot; vertex=&quot;1&quot; parent=&quot;1&quot;&gt;&lt;mxGeometry x=&quot;245.5506174270972&quot; y=&quot;680.5258493353028&quot; width=&quot;22.730021682416364&quot; height=&quot;10.609466315586669&quot; as=&quot;geometry&quot;/&gt;&lt;/mxCell&gt;&lt;mxCell id=&quot;80&quot; value=&quot;&quot; style=&quot;rounded=0;whiteSpace=wrap;html=1;fillColor=#f8cecc;strokeColor=#b85450;container=0;rotation=90;fontFamily=Times New Roman;&quot; vertex=&quot;1&quot; parent=&quot;1&quot;&gt;&lt;mxGeometry x=&quot;234.09395327265344&quot; y=&quot;667.192023633678&quot; width=&quot;22.730021682416364&quot; height=&quot;10.609466315586669&quot; as=&quot;geometry&quot;/&gt;&lt;/mxCell&gt;&lt;mxCell id=&quot;81&quot; value=&quot;&quot; style=&quot;rounded=0;whiteSpace=wrap;html=1;fillColor=#fff2cc;strokeColor=#d6b656;container=0;rotation=90;fontFamily=Times New Roman;&quot; vertex=&quot;1&quot; parent=&quot;1&quot;&gt;&lt;mxGeometry x=&quot;256.24350397124465&quot; y=&quot;704.0561299852288&quot; width=&quot;22.730021682416364&quot; height=&quot;10.609466315586669&quot; as=&quot;geometry&quot;/&gt;&lt;/mxCell&gt;&lt;mxCell id=&quot;82&quot; value=&quot;&quot; style=&quot;rounded=0;whiteSpace=wrap;html=1;fillColor=#d5e8d4;strokeColor=#82b366;container=0;rotation=90;fontFamily=Times New Roman;&quot; vertex=&quot;1&quot; parent=&quot;1&quot;&gt;&lt;mxGeometry x=&quot;302.83393819931587&quot; y=&quot;711.8995568685376&quot; width=&quot;22.730021682416364&quot; height=&quot;10.609466315586669&quot; as=&quot;geometry&quot;/&gt;&lt;/mxCell&gt;&lt;mxCell id=&quot;83&quot; value=&quot;&quot; style=&quot;rounded=0;whiteSpace=wrap;html=1;fillColor=#fff2cc;strokeColor=#d6b656;container=0;rotation=90;fontFamily=Times New Roman;&quot; vertex=&quot;1&quot; parent=&quot;1&quot;&gt;&lt;mxGeometry x=&quot;240.20417415502342&quot; y=&quot;704.0561299852288&quot; width=&quot;22.730021682416364&quot; height=&quot;10.609466315586669&quot; as=&quot;geometry&quot;/&gt;&lt;/mxCell&gt;&lt;mxCell id=&quot;84&quot; value=&quot;&quot; style=&quot;rounded=0;whiteSpace=wrap;html=1;fillColor=#f8cecc;strokeColor=#b85450;container=0;rotation=90;fontFamily=Times New Roman;&quot; vertex=&quot;1&quot; parent=&quot;1&quot;&gt;&lt;mxGeometry x=&quot;260.8261696330222&quot; y=&quot;587.1890694239291&quot; width=&quot;22.730021682416364&quot; height=&quot;10.609466315586669&quot; as=&quot;geometry&quot;/&gt;&lt;/mxCell&gt;&lt;mxCell id=&quot;85&quot; value=&quot;&quot; style=&quot;rounded=0;whiteSpace=wrap;html=1;fillColor=#f8cecc;strokeColor=#b85450;container=0;rotation=90;fontFamily=Times New Roman;&quot; vertex=&quot;1&quot; parent=&quot;1&quot;&gt;&lt;mxGeometry x=&quot;211.94440257406222&quot; y=&quot;592.6794682422451&quot; width=&quot;22.730021682416364&quot; height=&quot;10.609466315586669&quot; as=&quot;geometry&quot;/&gt;&lt;/mxCell&gt;&lt;mxCell id=&quot;86&quot; value=&quot;&quot; style=&quot;rounded=0;whiteSpace=wrap;html=1;fillColor=#fff2cc;strokeColor=#d6b656;container=0;rotation=90;fontFamily=Times New Roman;&quot; vertex=&quot;1&quot; parent=&quot;1&quot;&gt;&lt;mxGeometry x=&quot;260.8261696330222&quot; y=&quot;680.5258493353028&quot; width=&quot;22.730021682416364&quot; height=&quot;10.609466315586669&quot; as=&quot;geometry&quot;/&gt;&lt;/mxCell&gt;&lt;mxCell id=&quot;87&quot; value=&quot;&quot; style=&quot;rounded=0;whiteSpace=wrap;html=1;fillColor=#d5e8d4;strokeColor=#82b366;container=0;rotation=90;fontFamily=Times New Roman;&quot; vertex=&quot;1&quot; parent=&quot;1&quot;&gt;&lt;mxGeometry x=&quot;276.8654994492434&quot; y=&quot;704.0561299852288&quot; width=&quot;22.730021682416364&quot; height=&quot;10.609466315586669&quot; as=&quot;geometry&quot;/&gt;&lt;/mxCell&gt;&lt;mxCell id=&quot;88&quot; value=&quot;&quot; style=&quot;rounded=0;whiteSpace=wrap;html=1;fillColor=#fff2cc;strokeColor=#d6b656;container=0;rotation=90;fontFamily=Times New Roman;&quot; vertex=&quot;1&quot; parent=&quot;1&quot;&gt;&lt;mxGeometry x=&quot;230.2750652211722&quot; y=&quot;704.0561299852288&quot; width=&quot;22.730021682416364&quot; height=&quot;10.609466315586669&quot; as=&quot;geometry&quot;/&gt;&lt;/mxCell&gt;&lt;mxCell id=&quot;89&quot; value=&quot;&amp;lt;span style=&amp;quot;color: rgba(0, 0, 0, 0); font-size: 0px; text-align: start; text-wrap: nowrap;&amp;quot;&amp;gt;%3CmxGraphModel%3E%3Croot%3E%3CmxCell%20id%3D%220%22%2F%3E%3CmxCell%20id%3D%221%22%20parent%3D%220%22%2F%3E%3CmxCell%20id%3D%222%22%20value%3D%22%22%20style%3D%22rounded%3D0%3BwhiteSpace%3Dwrap%3Bhtml%3D1%3BfillColor%3D%23dae8fc%3BstrokeColor%3D%236c8ebf%3B%22%20vertex%3D%221%22%20parent%3D%221%22%3E%3CmxGeometry%20x%3D%22610%22%20y%3D%22480%22%20width%3D%2290%22%20height%3D%2240%22%20as%3D%22geometry%22%2F%3E%3C%2FmxCell%3E%3C%2Froot%3E%3C%2FmxGraphModel%3E&amp;lt;/span&amp;gt;&quot; style=&quot;rounded=0;whiteSpace=wrap;html=1;fillColor=#fff2cc;strokeColor=#d6b656;container=0;rotation=90;fontFamily=Times New Roman;&quot; vertex=&quot;1&quot; parent=&quot;1&quot;&gt;&lt;mxGeometry x=&quot;247.84195025798593&quot; y=&quot;729.9394387001478&quot; width=&quot;22.730021682416364&quot; height=&quot;10.609466315586669&quot; as=&quot;geometry&quot;/&gt;&lt;/mxCell&gt;&lt;mxCell id=&quot;90&quot; value=&quot;&amp;lt;span style=&amp;quot;color: rgba(0, 0, 0, 0); font-size: 0px; text-align: start; text-wrap: nowrap;&amp;quot;&amp;gt;%3CmxGraphModel%3E%3Croot%3E%3CmxCell%20id%3D%220%22%2F%3E%3CmxCell%20id%3D%221%22%20parent%3D%220%22%2F%3E%3CmxCell%20id%3D%222%22%20value%3D%22%22%20style%3D%22rounded%3D0%3BwhiteSpace%3Dwrap%3Bhtml%3D1%3BfillColor%3D%23dae8fc%3BstrokeColor%3D%236c8ebf%3B%22%20vertex%3D%221%22%20parent%3D%221%22%3E%3CmxGeometry%20x%3D%22610%22%20y%3D%22480%22%20width%3D%2290%22%20height%3D%2240%22%20as%3D%22geometry%22%2F%3E%3C%2FmxCell%3E%3C%2Froot%3E%3C%2FmxGraphModel%3E&amp;lt;/span&amp;gt;&quot; style=&quot;rounded=0;whiteSpace=wrap;html=1;fillColor=#fff2cc;strokeColor=#d6b656;container=0;rotation=90;fontFamily=Times New Roman;&quot; vertex=&quot;1&quot; parent=&quot;1&quot;&gt;&lt;mxGeometry x=&quot;237.9128413241347&quot; y=&quot;729.9394387001478&quot; width=&quot;22.730021682416364&quot; height=&quot;10.609466315586669&quot; as=&quot;geometry&quot;/&gt;&lt;/mxCell&gt;&lt;mxCell id=&quot;91&quot; value=&quot;&amp;lt;span style=&amp;quot;color: rgba(0, 0, 0, 0); font-size: 0px; text-align: start; text-wrap: nowrap;&amp;quot;&amp;gt;%3CmxGraphModel%3E%3Croot%3E%3CmxCell%20id%3D%220%22%2F%3E%3CmxCell%20id%3D%221%22%20parent%3D%220%22%2F%3E%3CmxCell%20id%3D%222%22%20value%3D%22%22%20style%3D%22rounded%3D0%3BwhiteSpace%3Dwrap%3Bhtml%3D1%3BfillColor%3D%23dae8fc%3BstrokeColor%3D%236c8ebf%3B%22%20vertex%3D%221%22%20parent%3D%221%22%3E%3CmxGeometry%20x%3D%22610%22%20y%3D%22480%22%20width%3D%2290%22%20height%3D%2240%22%20as%3D%22geometry%22%2F%3E%3C%2FmxCell%3E%3C%2Froot%3E%3C%2FmxGraphModel%3E&amp;lt;/span&amp;gt;&quot; style=&quot;rounded=0;whiteSpace=wrap;html=1;fillColor=#fff2cc;strokeColor=#d6b656;container=0;rotation=90;fontFamily=Times New Roman;&quot; vertex=&quot;1&quot; parent=&quot;1&quot;&gt;&lt;mxGeometry x=&quot;227.21995477998723&quot; y=&quot;729.9394387001478&quot; width=&quot;22.730021682416364&quot; height=&quot;10.609466315586669&quot; as=&quot;geometry&quot;/&gt;&lt;/mxCell&gt;&lt;mxCell id=&quot;92&quot; value=&quot;&amp;lt;span style=&amp;quot;color: rgba(0, 0, 0, 0); font-size: 0px; text-align: start; text-wrap: nowrap;&amp;quot;&amp;gt;%3CmxGraphModel%3E%3Croot%3E%3CmxCell%20id%3D%220%22%2F%3E%3CmxCell%20id%3D%221%22%20parent%3D%220%22%2F%3E%3CmxCell%20id%3D%222%22%20value%3D%22%22%20style%3D%22rounded%3D0%3BwhiteSpace%3Dwrap%3Bhtml%3D1%3BfillColor%3D%23dae8fc%3BstrokeColor%3D%236c8ebf%3B%22%20vertex%3D%221%22%20parent%3D%221%22%3E%3CmxGeometry%20x%3D%22610%22%20y%3D%22480%22%20width%3D%2290%22%20height%3D%2240%22%20as%3D%22geometry%22%2F%3E%3C%2FmxCell%3E%3C%2Froot%3E%3C%2FmxGraphModel%3E&amp;lt;/span&amp;gt;&quot; style=&quot;rounded=0;whiteSpace=wrap;html=1;fillColor=#fff2cc;strokeColor=#d6b656;container=0;rotation=90;fontFamily=Times New Roman;&quot; vertex=&quot;1&quot; parent=&quot;1&quot;&gt;&lt;mxGeometry x=&quot;217.29084584613594&quot; y=&quot;729.9394387001478&quot; width=&quot;22.730021682416364&quot; height=&quot;10.609466315586669&quot; as=&quot;geometry&quot;/&gt;&lt;/mxCell&gt;&lt;mxCell id=&quot;93&quot; value=&quot;&amp;lt;span style=&amp;quot;color: rgba(0, 0, 0, 0); font-size: 0px; text-align: start; text-wrap: nowrap;&amp;quot;&amp;gt;%3CmxGraphModel%3E%3Croot%3E%3CmxCell%20id%3D%220%22%2F%3E%3CmxCell%20id%3D%221%22%20parent%3D%220%22%2F%3E%3CmxCell%20id%3D%222%22%20value%3D%22%22%20style%3D%22rounded%3D0%3BwhiteSpace%3Dwrap%3Bhtml%3D1%3BfillColor%3D%23dae8fc%3BstrokeColor%3D%236c8ebf%3B%22%20vertex%3D%221%22%20parent%3D%221%22%3E%3CmxGeometry%20x%3D%22610%22%20y%3D%22480%22%20width%3D%2290%22%20height%3D%2240%22%20as%3D%22geometry%22%2F%3E%3C%2FmxCell%3E%3C%2Froot%3E%3C%2FmxGraphModel%3E&amp;lt;/span&amp;gt;&quot; style=&quot;rounded=0;whiteSpace=wrap;html=1;fillColor=#fff2cc;strokeColor=#d6b656;container=0;rotation=90;fontFamily=Times New Roman;&quot; vertex=&quot;1&quot; parent=&quot;1&quot;&gt;&lt;mxGeometry x=&quot;211.94440257406222&quot; y=&quot;704.0561299852288&quot; width=&quot;22.730021682416364&quot; height=&quot;10.609466315586669&quot; as=&quot;geometry&quot;/&gt;&lt;/mxCell&gt;&lt;mxCell id=&quot;94&quot; value=&quot;&amp;lt;span style=&amp;quot;color: rgba(0, 0, 0, 0); font-size: 0px; text-align: start; text-wrap: nowrap;&amp;quot;&amp;gt;%3CmxGraphModel%3E%3Croot%3E%3CmxCell%20id%3D%220%22%2F%3E%3CmxCell%20id%3D%221%22%20parent%3D%220%22%2F%3E%3CmxCell%20id%3D%222%22%20value%3D%22%22%20style%3D%22rounded%3D0%3BwhiteSpace%3Dwrap%3Bhtml%3D1%3BfillColor%3D%23dae8fc%3BstrokeColor%3D%236c8ebf%3B%22%20vertex%3D%221%22%20parent%3D%221%22%3E%3CmxGeometry%20x%3D%22610%22%20y%3D%22480%22%20width%3D%2290%22%20height%3D%2240%22%20as%3D%22geometry%22%2F%3E%3C%2FmxCell%3E%3C%2Froot%3E%3C%2FmxGraphModel%3E&amp;lt;/span&amp;gt;&quot; style=&quot;rounded=0;whiteSpace=wrap;html=1;fillColor=#fff2cc;strokeColor=#d6b656;container=0;rotation=90;fontFamily=Times New Roman;&quot; vertex=&quot;1&quot; parent=&quot;1&quot;&gt;&lt;mxGeometry x=&quot;237.9128413241347&quot; y=&quot;753.4697193500738&quot; width=&quot;22.730021682416364&quot; height=&quot;10.609466315586669&quot; as=&quot;geometry&quot;/&gt;&lt;/mxCell&gt;&lt;mxCell id=&quot;95&quot; value=&quot;&quot; style=&quot;endArrow=none;dashed=1;html=1;rounded=0;strokeWidth=3;strokeColor=none;fillColor=#f8cecc;fontFamily=Times New Roman;&quot; edge=&quot;1&quot; parent=&quot;1&quot;&gt;&lt;mxGeometry width=&quot;50&quot; height=&quot;50&quot; relative=&quot;1&quot; as=&quot;geometry&quot;&gt;&lt;mxPoint x=&quot;282.9757203316134&quot; y=&quot;638.1713441654358&quot; as=&quot;sourcePoint&quot;/&gt;&lt;mxPoint x=&quot;282.9757203316134&quot; y=&quot;575.423929098966&quot; as=&quot;targetPoint&quot;/&gt;&lt;/mxGeometry&gt;&lt;/mxCell&gt;&lt;mxCell id=&quot;96&quot; value=&quot;&quot; style=&quot;rounded=0;whiteSpace=wrap;html=1;fillColor=#dae8fc;strokeColor=#6c8ebf;container=0;rotation=90;fontFamily=Times New Roman;&quot; vertex=&quot;1&quot; parent=&quot;1&quot;&gt;&lt;mxGeometry x=&quot;344.07792915531326&quot; y=&quot;587.1890694239291&quot; width=&quot;22.730021682416364&quot; height=&quot;10.609466315586669&quot; as=&quot;geometry&quot;/&gt;&lt;/mxCell&gt;&lt;mxCell id=&quot;97&quot; value=&quot;&quot; style=&quot;rounded=0;whiteSpace=wrap;html=1;fillColor=#dae8fc;strokeColor=#6c8ebf;container=0;rotation=90;fontFamily=Times New Roman;&quot; vertex=&quot;1&quot; parent=&quot;1&quot;&gt;&lt;mxGeometry x=&quot;333.3850426111658&quot; y=&quot;587.1890694239291&quot; width=&quot;22.730021682416364&quot; height=&quot;10.609466315586669&quot; as=&quot;geometry&quot;/&gt;&lt;/mxCell&gt;&lt;mxCell id=&quot;98&quot; value=&quot;&quot; style=&quot;rounded=0;whiteSpace=wrap;html=1;fillColor=#dae8fc;strokeColor=#6c8ebf;container=0;rotation=90;fontFamily=Times New Roman;&quot; vertex=&quot;1&quot; parent=&quot;1&quot;&gt;&lt;mxGeometry x=&quot;354.0070380891645&quot; y=&quot;616.2097488921713&quot; width=&quot;22.730021682416364&quot; height=&quot;10.609466315586669&quot; as=&quot;geometry&quot;/&gt;&lt;/mxCell&gt;&lt;mxCell id=&quot;99&quot; value=&quot;&quot; style=&quot;rounded=0;whiteSpace=wrap;html=1;fillColor=#dae8fc;strokeColor=#6c8ebf;container=0;rotation=90;fontFamily=Times New Roman;&quot; vertex=&quot;1&quot; parent=&quot;1&quot;&gt;&lt;mxGeometry x=&quot;344.07792915531326&quot; y=&quot;616.2097488921713&quot; width=&quot;22.730021682416364&quot; height=&quot;10.609466315586669&quot; as=&quot;geometry&quot;/&gt;&lt;/mxCell&gt;&lt;mxCell id=&quot;100&quot; value=&quot;&quot; style=&quot;rounded=0;whiteSpace=wrap;html=1;fillColor=#dae8fc;strokeColor=#6c8ebf;container=0;rotation=90;fontFamily=Times New Roman;&quot; vertex=&quot;1&quot; parent=&quot;1&quot;&gt;&lt;mxGeometry x=&quot;323.45593367731453&quot; y=&quot;587.1890694239291&quot; width=&quot;22.730021682416364&quot; height=&quot;10.609466315586669&quot; as=&quot;geometry&quot;/&gt;&lt;/mxCell&gt;&lt;mxCell id=&quot;101&quot; value=&quot;&quot; style=&quot;rounded=0;whiteSpace=wrap;html=1;fillColor=#dae8fc;strokeColor=#6c8ebf;container=0;rotation=90;fontFamily=Times New Roman;&quot; vertex=&quot;1&quot; parent=&quot;1&quot;&gt;&lt;mxGeometry x=&quot;325.7472665082033&quot; y=&quot;616.2097488921713&quot; width=&quot;22.730021682416364&quot; height=&quot;10.609466315586669&quot; as=&quot;geometry&quot;/&gt;&lt;/mxCell&gt;&lt;mxCell id=&quot;102&quot; value=&quot;&quot; style=&quot;rounded=0;whiteSpace=wrap;html=1;fillColor=#dae8fc;strokeColor=#6c8ebf;container=0;rotation=90;fontFamily=Times New Roman;&quot; vertex=&quot;1&quot; parent=&quot;1&quot;&gt;&lt;mxGeometry x=&quot;305.1252710302046&quot; y=&quot;616.2097488921713&quot; width=&quot;22.730021682416364&quot; height=&quot;10.609466315586669&quot; as=&quot;geometry&quot;/&gt;&lt;/mxCell&gt;&lt;mxCell id=&quot;103&quot; value=&quot;&quot; style=&quot;rounded=0;whiteSpace=wrap;html=1;fillColor=#dae8fc;strokeColor=#6c8ebf;container=0;rotation=90;fontFamily=Times New Roman;&quot; vertex=&quot;1&quot; parent=&quot;1&quot;&gt;&lt;mxGeometry x=&quot;295.1961620963534&quot; y=&quot;616.2097488921713&quot; width=&quot;22.730021682416364&quot; height=&quot;10.609466315586669&quot; as=&quot;geometry&quot;/&gt;&lt;/mxCell&gt;&lt;mxCell id=&quot;104&quot; value=&quot;&quot; style=&quot;rounded=0;whiteSpace=wrap;html=1;fillColor=#dae8fc;strokeColor=#6c8ebf;container=0;rotation=90;fontFamily=Times New Roman;&quot; vertex=&quot;1&quot; parent=&quot;1&quot;&gt;&lt;mxGeometry x=&quot;305.1252710302046&quot; y=&quot;587.1890694239291&quot; width=&quot;22.730021682416364&quot; height=&quot;10.609466315586669&quot; as=&quot;geometry&quot;/&gt;&lt;/mxCell&gt;&lt;mxCell id=&quot;105&quot; value=&quot;&quot; style=&quot;rounded=0;whiteSpace=wrap;html=1;fillColor=#dae8fc;strokeColor=#6c8ebf;container=0;rotation=90;fontFamily=Times New Roman;&quot; vertex=&quot;1&quot; parent=&quot;1&quot;&gt;&lt;mxGeometry x=&quot;315.8181575743521&quot; y=&quot;616.2097488921713&quot; width=&quot;22.730021682416364&quot; height=&quot;10.609466315586669&quot; as=&quot;geometry&quot;/&gt;&lt;/mxCell&gt;&lt;mxCell id=&quot;106&quot; value=&quot;&quot; style=&quot;rounded=0;whiteSpace=wrap;html=1;fillColor=#dae8fc;strokeColor=#6c8ebf;container=0;rotation=90;fontFamily=Times New Roman;&quot; vertex=&quot;1&quot; parent=&quot;1&quot;&gt;&lt;mxGeometry x=&quot;284.5032755522059&quot; y=&quot;616.2097488921713&quot; width=&quot;22.730021682416364&quot; height=&quot;10.609466315586669&quot; as=&quot;geometry&quot;/&gt;&lt;/mxCell&gt;&lt;mxCell id=&quot;107&quot; value=&quot;&quot; style=&quot;rounded=0;whiteSpace=wrap;html=1;fillColor=#dae8fc;strokeColor=#6c8ebf;container=0;rotation=90;fontFamily=Times New Roman;&quot; vertex=&quot;1&quot; parent=&quot;1&quot;&gt;&lt;mxGeometry x=&quot;295.1961620963534&quot; y=&quot;587.1890694239291&quot; width=&quot;22.730021682416364&quot; height=&quot;10.609466315586669&quot; as=&quot;geometry&quot;/&gt;&lt;/mxCell&gt;&lt;mxCell id=&quot;108&quot; value=&quot;&quot; style=&quot;rounded=1;whiteSpace=wrap;html=1;fillColor=none;strokeWidth=2;glass=0;shadow=1;dashed=1;rotation=90;container=0;fontFamily=Times New Roman;&quot; vertex=&quot;1&quot; parent=&quot;1&quot;&gt;&lt;mxGeometry x=&quot;289.08594121398335&quot; y=&quot;642.09305760709&quot; width=&quot;32.04047075192765&quot; height=&quot;19.02031019202363&quot; as=&quot;geometry&quot;/&gt;&lt;/mxCell&gt;&lt;mxCell id=&quot;109&quot; value=&quot;&quot; style=&quot;rounded=1;whiteSpace=wrap;html=1;fillColor=none;strokeWidth=2;glass=0;shadow=1;dashed=1;rotation=90;container=0;fontFamily=Times New Roman;&quot; vertex=&quot;1&quot; parent=&quot;1&quot;&gt;&lt;mxGeometry x=&quot;229.51128761087594&quot; y=&quot;663.2703101920235&quot; width=&quot;32.04047075192765&quot; height=&quot;19.02031019202363&quot; as=&quot;geometry&quot;/&gt;&lt;/mxCell&gt;&lt;mxCell id=&quot;110&quot; value=&quot;&quot; style=&quot;rounded=1;whiteSpace=wrap;html=1;fillColor=#f5f5f5;strokeWidth=2;fontColor=#333333;strokeColor=#666666;rotation=90;container=0;fontFamily=Times New Roman;&quot; vertex=&quot;1&quot; parent=&quot;1&quot;&gt;&lt;mxGeometry x=&quot;10.72444779407502&quot; y=&quot;588.7577548005909&quot; width=&quot;198.5821786770247&quot; height=&quot;172.55539143279174&quot; as=&quot;geometry&quot;/&gt;&lt;/mxCell&gt;&lt;mxCell id=&quot;111&quot; value=&quot;&quot; style=&quot;rounded=0;whiteSpace=wrap;html=1;fillColor=#d5e8d4;strokeColor=#82b366;container=0;rotation=90;fontFamily=Times New Roman;&quot; vertex=&quot;1&quot; parent=&quot;1&quot;&gt;&lt;mxGeometry x=&quot;168.0626355151023&quot; y=&quot;680.5258493353028&quot; width=&quot;22.730021682416364&quot; height=&quot;10.609466315586669&quot; as=&quot;geometry&quot;/&gt;&lt;/mxCell&gt;&lt;mxCell id=&quot;112&quot; value=&quot;&quot; style=&quot;rounded=0;whiteSpace=wrap;html=1;fillColor=#d5e8d4;strokeColor=#82b366;container=0;rotation=90;fontFamily=Times New Roman;&quot; vertex=&quot;1&quot; parent=&quot;1&quot;&gt;&lt;mxGeometry x=&quot;158.13352658125103&quot; y=&quot;680.5258493353028&quot; width=&quot;22.730021682416364&quot; height=&quot;10.609466315586669&quot; as=&quot;geometry&quot;/&gt;&lt;/mxCell&gt;&lt;mxCell id=&quot;113&quot; value=&quot;&quot; style=&quot;rounded=0;whiteSpace=wrap;html=1;fillColor=#d5e8d4;strokeColor=#82b366;container=0;rotation=90;fontFamily=Times New Roman;&quot; vertex=&quot;1&quot; parent=&quot;1&quot;&gt;&lt;mxGeometry x=&quot;147.44064003710358&quot; y=&quot;680.5258493353028&quot; width=&quot;22.730021682416364&quot; height=&quot;10.609466315586669&quot; as=&quot;geometry&quot;/&gt;&lt;/mxCell&gt;&lt;mxCell id=&quot;114&quot; value=&quot;&quot; style=&quot;rounded=0;whiteSpace=wrap;html=1;fillColor=#d5e8d4;strokeColor=#82b366;container=0;rotation=90;fontFamily=Times New Roman;&quot; vertex=&quot;1&quot; parent=&quot;1&quot;&gt;&lt;mxGeometry x=&quot;137.51153110325237&quot; y=&quot;680.5258493353028&quot; width=&quot;22.730021682416364&quot; height=&quot;10.609466315586669&quot; as=&quot;geometry&quot;/&gt;&lt;/mxCell&gt;&lt;mxCell id=&quot;115&quot; value=&quot;&quot; style=&quot;rounded=0;whiteSpace=wrap;html=1;fillColor=#d5e8d4;strokeColor=#82b366;container=0;rotation=90;fontFamily=Times New Roman;&quot; vertex=&quot;1&quot; parent=&quot;1&quot;&gt;&lt;mxGeometry x=&quot;122.23597889732739&quot; y=&quot;680.5258493353028&quot; width=&quot;22.730021682416364&quot; height=&quot;10.609466315586669&quot; as=&quot;geometry&quot;/&gt;&lt;/mxCell&gt;&lt;mxCell id=&quot;116&quot; value=&quot;&quot; style=&quot;rounded=0;whiteSpace=wrap;html=1;fillColor=#d5e8d4;strokeColor=#82b366;container=0;rotation=90;fontFamily=Times New Roman;&quot; vertex=&quot;1&quot; parent=&quot;1&quot;&gt;&lt;mxGeometry x=&quot;111.54309235317987&quot; y=&quot;680.5258493353028&quot; width=&quot;22.730021682416364&quot; height=&quot;10.609466315586669&quot; as=&quot;geometry&quot;/&gt;&lt;/mxCell&gt;&lt;mxCell id=&quot;117&quot; value=&quot;&quot; style=&quot;rounded=0;whiteSpace=wrap;html=1;fillColor=#d5e8d4;strokeColor=#82b366;container=0;rotation=90;fontFamily=Times New Roman;&quot; vertex=&quot;1&quot; parent=&quot;1&quot;&gt;&lt;mxGeometry x=&quot;101.61398341932863&quot; y=&quot;680.5258493353028&quot; width=&quot;22.730021682416364&quot; height=&quot;10.609466315586669&quot; as=&quot;geometry&quot;/&gt;&lt;/mxCell&gt;&lt;mxCell id=&quot;118&quot; value=&quot;&quot; style=&quot;rounded=0;whiteSpace=wrap;html=1;fillColor=#d5e8d4;strokeColor=#82b366;container=0;rotation=90;fontFamily=Times New Roman;&quot; vertex=&quot;1&quot; parent=&quot;1&quot;&gt;&lt;mxGeometry x=&quot;147.44064003710358&quot; y=&quot;711.8995568685376&quot; width=&quot;22.730021682416364&quot; height=&quot;10.609466315586669&quot; as=&quot;geometry&quot;/&gt;&lt;/mxCell&gt;&lt;mxCell id=&quot;119&quot; value=&quot;&quot; style=&quot;rounded=0;whiteSpace=wrap;html=1;fillColor=#d5e8d4;strokeColor=#82b366;container=0;rotation=90;fontFamily=Times New Roman;&quot; vertex=&quot;1&quot; parent=&quot;1&quot;&gt;&lt;mxGeometry x=&quot;137.51153110325237&quot; y=&quot;711.8995568685376&quot; width=&quot;22.730021682416364&quot; height=&quot;10.609466315586669&quot; as=&quot;geometry&quot;/&gt;&lt;/mxCell&gt;&lt;mxCell id=&quot;120&quot; value=&quot;&quot; style=&quot;rounded=0;whiteSpace=wrap;html=1;fillColor=#d5e8d4;strokeColor=#82b366;container=0;rotation=90;fontFamily=Times New Roman;&quot; vertex=&quot;1&quot; parent=&quot;1&quot;&gt;&lt;mxGeometry x=&quot;126.81864455910488&quot; y=&quot;711.8995568685376&quot; width=&quot;22.730021682416364&quot; height=&quot;10.609466315586669&quot; as=&quot;geometry&quot;/&gt;&lt;/mxCell&gt;&lt;mxCell id=&quot;121&quot; value=&quot;&quot; style=&quot;rounded=0;whiteSpace=wrap;html=1;fillColor=#dae8fc;strokeColor=#6c8ebf;container=0;rotation=90;fontFamily=Times New Roman;&quot; vertex=&quot;1&quot; parent=&quot;1&quot;&gt;&lt;mxGeometry x=&quot;107.72420430169865&quot; y=&quot;646.0147710487445&quot; width=&quot;22.730021682416364&quot; height=&quot;10.609466315586669&quot; as=&quot;geometry&quot;/&gt;&lt;/mxCell&gt;&lt;mxCell id=&quot;122&quot; value=&quot;&quot; style=&quot;rounded=0;whiteSpace=wrap;html=1;fillColor=#f8cecc;strokeColor=#b85450;container=0;rotation=90;fontFamily=Times New Roman;&quot; vertex=&quot;1&quot; parent=&quot;1&quot;&gt;&lt;mxGeometry x=&quot;77.93687750014493&quot; y=&quot;616.2097488921713&quot; width=&quot;22.730021682416364&quot; height=&quot;10.609466315586669&quot; as=&quot;geometry&quot;/&gt;&lt;/mxCell&gt;&lt;mxCell id=&quot;123&quot; value=&quot;&quot; style=&quot;rounded=0;whiteSpace=wrap;html=1;fillColor=#f8cecc;strokeColor=#b85450;container=0;rotation=90;fontFamily=Times New Roman;&quot; vertex=&quot;1&quot; parent=&quot;1&quot;&gt;&lt;mxGeometry x=&quot;67.24399095599745&quot; y=&quot;616.2097488921713&quot; width=&quot;22.730021682416364&quot; height=&quot;10.609466315586669&quot; as=&quot;geometry&quot;/&gt;&lt;/mxCell&gt;&lt;mxCell id=&quot;124&quot; value=&quot;&quot; style=&quot;rounded=0;whiteSpace=wrap;html=1;fillColor=#f8cecc;strokeColor=#b85450;container=0;rotation=90;fontFamily=Times New Roman;&quot; vertex=&quot;1&quot; parent=&quot;1&quot;&gt;&lt;mxGeometry x=&quot;57.31488202214621&quot; y=&quot;616.2097488921713&quot; width=&quot;22.730021682416364&quot; height=&quot;10.609466315586669&quot; as=&quot;geometry&quot;/&gt;&lt;/mxCell&gt;&lt;mxCell id=&quot;125&quot; value=&quot;&quot; style=&quot;rounded=0;whiteSpace=wrap;html=1;fillColor=#f8cecc;strokeColor=#b85450;container=0;rotation=90;fontFamily=Times New Roman;&quot; vertex=&quot;1&quot; parent=&quot;1&quot;&gt;&lt;mxGeometry x=&quot;46.62199547799872&quot; y=&quot;616.2097488921713&quot; width=&quot;22.730021682416364&quot; height=&quot;10.609466315586669&quot; as=&quot;geometry&quot;/&gt;&lt;/mxCell&gt;&lt;mxCell id=&quot;126&quot; value=&quot;&quot; style=&quot;rounded=0;whiteSpace=wrap;html=1;fillColor=#f8cecc;strokeColor=#b85450;container=0;rotation=90;fontFamily=Times New Roman;&quot; vertex=&quot;1&quot; parent=&quot;1&quot;&gt;&lt;mxGeometry x=&quot;59.60621485303494&quot; y=&quot;592.6794682422451&quot; width=&quot;22.730021682416364&quot; height=&quot;10.609466315586669&quot; as=&quot;geometry&quot;/&gt;&lt;/mxCell&gt;&lt;mxCell id=&quot;127&quot; value=&quot;&quot; style=&quot;rounded=0;whiteSpace=wrap;html=1;fillColor=#f8cecc;strokeColor=#b85450;container=0;rotation=90;fontFamily=Times New Roman;&quot; vertex=&quot;1&quot; parent=&quot;1&quot;&gt;&lt;mxGeometry x=&quot;36.692886544147484&quot; y=&quot;592.6794682422451&quot; width=&quot;22.730021682416364&quot; height=&quot;10.609466315586669&quot; as=&quot;geometry&quot;/&gt;&lt;/mxCell&gt;&lt;mxCell id=&quot;128&quot; value=&quot;&quot; style=&quot;rounded=0;whiteSpace=wrap;html=1;fillColor=#f8cecc;strokeColor=#b85450;container=0;rotation=90;fontFamily=Times New Roman;&quot; vertex=&quot;1&quot; parent=&quot;1&quot;&gt;&lt;mxGeometry x=&quot;33.63777610296249&quot; y=&quot;638.9556868537666&quot; width=&quot;22.730021682416364&quot; height=&quot;10.609466315586669&quot; as=&quot;geometry&quot;/&gt;&lt;/mxCell&gt;&lt;mxCell id=&quot;129&quot; value=&quot;&quot; style=&quot;rounded=0;whiteSpace=wrap;html=1;fillColor=#f8cecc;strokeColor=#b85450;container=0;rotation=90;fontFamily=Times New Roman;&quot; vertex=&quot;1&quot; parent=&quot;1&quot;&gt;&lt;mxGeometry x=&quot;57.31488202214621&quot; y=&quot;642.09305760709&quot; width=&quot;22.730021682416364&quot; height=&quot;10.609466315586669&quot; as=&quot;geometry&quot;/&gt;&lt;/mxCell&gt;&lt;mxCell id=&quot;130&quot; value=&quot;&quot; style=&quot;rounded=0;whiteSpace=wrap;html=1;fillColor=#f8cecc;strokeColor=#b85450;container=0;rotation=90;fontFamily=Times New Roman;&quot; vertex=&quot;1&quot; parent=&quot;1&quot;&gt;&lt;mxGeometry x=&quot;74.88176705895992&quot; y=&quot;642.09305760709&quot; width=&quot;22.730021682416364&quot; height=&quot;10.609466315586669&quot; as=&quot;geometry&quot;/&gt;&lt;/mxCell&gt;&lt;mxCell id=&quot;131&quot; value=&quot;&quot; style=&quot;rounded=0;whiteSpace=wrap;html=1;fillColor=#fff2cc;strokeColor=#d6b656;container=0;rotation=90;fontFamily=Times New Roman;&quot; vertex=&quot;1&quot; parent=&quot;1&quot;&gt;&lt;mxGeometry x=&quot;59.60621485303494&quot; y=&quot;680.5258493353028&quot; width=&quot;22.730021682416364&quot; height=&quot;10.609466315586669&quot; as=&quot;geometry&quot;/&gt;&lt;/mxCell&gt;&lt;mxCell id=&quot;132&quot; value=&quot;&quot; style=&quot;rounded=0;whiteSpace=wrap;html=1;fillColor=#fff2cc;strokeColor=#d6b656;container=0;rotation=90;fontFamily=Times New Roman;&quot; vertex=&quot;1&quot; parent=&quot;1&quot;&gt;&lt;mxGeometry x=&quot;48.14955069859121&quot; y=&quot;666.4076809453472&quot; width=&quot;22.730021682416364&quot; height=&quot;10.609466315586669&quot; as=&quot;geometry&quot;/&gt;&lt;/mxCell&gt;&lt;mxCell id=&quot;133&quot; value=&quot;&quot; style=&quot;rounded=0;whiteSpace=wrap;html=1;fillColor=#fff2cc;strokeColor=#d6b656;container=0;rotation=90;fontFamily=Times New Roman;&quot; vertex=&quot;1&quot; parent=&quot;1&quot;&gt;&lt;mxGeometry x=&quot;70.29910139718243&quot; y=&quot;704.0561299852288&quot; width=&quot;22.730021682416364&quot; height=&quot;10.609466315586669&quot; as=&quot;geometry&quot;/&gt;&lt;/mxCell&gt;&lt;mxCell id=&quot;134&quot; value=&quot;&quot; style=&quot;rounded=0;whiteSpace=wrap;html=1;fillColor=#d5e8d4;strokeColor=#82b366;container=0;rotation=90;fontFamily=Times New Roman;&quot; vertex=&quot;1&quot; parent=&quot;1&quot;&gt;&lt;mxGeometry x=&quot;116.88953562525361&quot; y=&quot;711.8995568685376&quot; width=&quot;22.730021682416364&quot; height=&quot;10.609466315586669&quot; as=&quot;geometry&quot;/&gt;&lt;/mxCell&gt;&lt;mxCell id=&quot;135&quot; value=&quot;&quot; style=&quot;rounded=0;whiteSpace=wrap;html=1;fillColor=#fff2cc;strokeColor=#d6b656;container=0;rotation=90;fontFamily=Times New Roman;&quot; vertex=&quot;1&quot; parent=&quot;1&quot;&gt;&lt;mxGeometry x=&quot;54.259771580961214&quot; y=&quot;704.0561299852288&quot; width=&quot;22.730021682416364&quot; height=&quot;10.609466315586669&quot; as=&quot;geometry&quot;/&gt;&lt;/mxCell&gt;&lt;mxCell id=&quot;136&quot; value=&quot;&quot; style=&quot;rounded=0;whiteSpace=wrap;html=1;fillColor=#f8cecc;strokeColor=#b85450;container=0;rotation=90;fontFamily=Times New Roman;&quot; vertex=&quot;1&quot; parent=&quot;1&quot;&gt;&lt;mxGeometry x=&quot;74.88176705895992&quot; y=&quot;587.1890694239291&quot; width=&quot;22.730021682416364&quot; height=&quot;10.609466315586669&quot; as=&quot;geometry&quot;/&gt;&lt;/mxCell&gt;&lt;mxCell id=&quot;137&quot; value=&quot;&quot; style=&quot;rounded=0;whiteSpace=wrap;html=1;fillColor=#f8cecc;strokeColor=#b85450;container=0;rotation=90;fontFamily=Times New Roman;&quot; vertex=&quot;1&quot; parent=&quot;1&quot;&gt;&lt;mxGeometry x=&quot;26&quot; y=&quot;592.6794682422451&quot; width=&quot;22.730021682416364&quot; height=&quot;10.609466315586669&quot; as=&quot;geometry&quot;/&gt;&lt;/mxCell&gt;&lt;mxCell id=&quot;138&quot; value=&quot;&quot; style=&quot;rounded=0;whiteSpace=wrap;html=1;fillColor=#fff2cc;strokeColor=#d6b656;container=0;rotation=90;fontFamily=Times New Roman;&quot; vertex=&quot;1&quot; parent=&quot;1&quot;&gt;&lt;mxGeometry x=&quot;74.88176705895992&quot; y=&quot;680.5258493353028&quot; width=&quot;22.730021682416364&quot; height=&quot;10.609466315586669&quot; as=&quot;geometry&quot;/&gt;&lt;/mxCell&gt;&lt;mxCell id=&quot;139&quot; value=&quot;&quot; style=&quot;rounded=0;whiteSpace=wrap;html=1;fillColor=#d5e8d4;strokeColor=#82b366;container=0;rotation=90;fontFamily=Times New Roman;&quot; vertex=&quot;1&quot; parent=&quot;1&quot;&gt;&lt;mxGeometry x=&quot;90.92109687518115&quot; y=&quot;704.0561299852288&quot; width=&quot;22.730021682416364&quot; height=&quot;10.609466315586669&quot; as=&quot;geometry&quot;/&gt;&lt;/mxCell&gt;&lt;mxCell id=&quot;140&quot; value=&quot;&quot; style=&quot;rounded=0;whiteSpace=wrap;html=1;fillColor=#fff2cc;strokeColor=#d6b656;container=0;rotation=90;fontFamily=Times New Roman;&quot; vertex=&quot;1&quot; parent=&quot;1&quot;&gt;&lt;mxGeometry x=&quot;44.330662647109975&quot; y=&quot;704.0561299852288&quot; width=&quot;22.730021682416364&quot; height=&quot;10.609466315586669&quot; as=&quot;geometry&quot;/&gt;&lt;/mxCell&gt;&lt;mxCell id=&quot;141&quot; value=&quot;&amp;lt;span style=&amp;quot;color: rgba(0, 0, 0, 0); font-size: 0px; text-align: start; text-wrap: nowrap;&amp;quot;&amp;gt;%3CmxGraphModel%3E%3Croot%3E%3CmxCell%20id%3D%220%22%2F%3E%3CmxCell%20id%3D%221%22%20parent%3D%220%22%2F%3E%3CmxCell%20id%3D%222%22%20value%3D%22%22%20style%3D%22rounded%3D0%3BwhiteSpace%3Dwrap%3Bhtml%3D1%3BfillColor%3D%23dae8fc%3BstrokeColor%3D%236c8ebf%3B%22%20vertex%3D%221%22%20parent%3D%221%22%3E%3CmxGeometry%20x%3D%22610%22%20y%3D%22480%22%20width%3D%2290%22%20height%3D%2240%22%20as%3D%22geometry%22%2F%3E%3C%2FmxCell%3E%3C%2Froot%3E%3C%2FmxGraphModel%3E&amp;lt;/span&amp;gt;&quot; style=&quot;rounded=0;whiteSpace=wrap;html=1;fillColor=#fff2cc;strokeColor=#d6b656;container=0;rotation=90;fontFamily=Times New Roman;&quot; vertex=&quot;1&quot; parent=&quot;1&quot;&gt;&lt;mxGeometry x=&quot;61.897547683923705&quot; y=&quot;729.9394387001478&quot; width=&quot;22.730021682416364&quot; height=&quot;10.609466315586669&quot; as=&quot;geometry&quot;/&gt;&lt;/mxCell&gt;&lt;mxCell id=&quot;142&quot; value=&quot;&amp;lt;span style=&amp;quot;color: rgba(0, 0, 0, 0); font-size: 0px; text-align: start; text-wrap: nowrap;&amp;quot;&amp;gt;%3CmxGraphModel%3E%3Croot%3E%3CmxCell%20id%3D%220%22%2F%3E%3CmxCell%20id%3D%221%22%20parent%3D%220%22%2F%3E%3CmxCell%20id%3D%222%22%20value%3D%22%22%20style%3D%22rounded%3D0%3BwhiteSpace%3Dwrap%3Bhtml%3D1%3BfillColor%3D%23dae8fc%3BstrokeColor%3D%236c8ebf%3B%22%20vertex%3D%221%22%20parent%3D%221%22%3E%3CmxGeometry%20x%3D%22610%22%20y%3D%22480%22%20width%3D%2290%22%20height%3D%2240%22%20as%3D%22geometry%22%2F%3E%3C%2FmxCell%3E%3C%2Froot%3E%3C%2FmxGraphModel%3E&amp;lt;/span&amp;gt;&quot; style=&quot;rounded=0;whiteSpace=wrap;html=1;fillColor=#fff2cc;strokeColor=#d6b656;container=0;rotation=90;fontFamily=Times New Roman;&quot; vertex=&quot;1&quot; parent=&quot;1&quot;&gt;&lt;mxGeometry x=&quot;51.968438750072465&quot; y=&quot;729.9394387001478&quot; width=&quot;22.730021682416364&quot; height=&quot;10.609466315586669&quot; as=&quot;geometry&quot;/&gt;&lt;/mxCell&gt;&lt;mxCell id=&quot;143&quot; value=&quot;&amp;lt;span style=&amp;quot;color: rgba(0, 0, 0, 0); font-size: 0px; text-align: start; text-wrap: nowrap;&amp;quot;&amp;gt;%3CmxGraphModel%3E%3Croot%3E%3CmxCell%20id%3D%220%22%2F%3E%3CmxCell%20id%3D%221%22%20parent%3D%220%22%2F%3E%3CmxCell%20id%3D%222%22%20value%3D%22%22%20style%3D%22rounded%3D0%3BwhiteSpace%3Dwrap%3Bhtml%3D1%3BfillColor%3D%23dae8fc%3BstrokeColor%3D%236c8ebf%3B%22%20vertex%3D%221%22%20parent%3D%221%22%3E%3CmxGeometry%20x%3D%22610%22%20y%3D%22480%22%20width%3D%2290%22%20height%3D%2240%22%20as%3D%22geometry%22%2F%3E%3C%2FmxCell%3E%3C%2Froot%3E%3C%2FmxGraphModel%3E&amp;lt;/span&amp;gt;&quot; style=&quot;rounded=0;whiteSpace=wrap;html=1;fillColor=#fff2cc;strokeColor=#d6b656;container=0;rotation=90;fontFamily=Times New Roman;&quot; vertex=&quot;1&quot; parent=&quot;1&quot;&gt;&lt;mxGeometry x=&quot;41.27555220592498&quot; y=&quot;729.9394387001478&quot; width=&quot;22.730021682416364&quot; height=&quot;10.609466315586669&quot; as=&quot;geometry&quot;/&gt;&lt;/mxCell&gt;&lt;mxCell id=&quot;144&quot; value=&quot;&amp;lt;span style=&amp;quot;color: rgba(0, 0, 0, 0); font-size: 0px; text-align: start; text-wrap: nowrap;&amp;quot;&amp;gt;%3CmxGraphModel%3E%3Croot%3E%3CmxCell%20id%3D%220%22%2F%3E%3CmxCell%20id%3D%221%22%20parent%3D%220%22%2F%3E%3CmxCell%20id%3D%222%22%20value%3D%22%22%20style%3D%22rounded%3D0%3BwhiteSpace%3Dwrap%3Bhtml%3D1%3BfillColor%3D%23dae8fc%3BstrokeColor%3D%236c8ebf%3B%22%20vertex%3D%221%22%20parent%3D%221%22%3E%3CmxGeometry%20x%3D%22610%22%20y%3D%22480%22%20width%3D%2290%22%20height%3D%2240%22%20as%3D%22geometry%22%2F%3E%3C%2FmxCell%3E%3C%2Froot%3E%3C%2FmxGraphModel%3E&amp;lt;/span&amp;gt;&quot; style=&quot;rounded=0;whiteSpace=wrap;html=1;fillColor=#fff2cc;strokeColor=#d6b656;container=0;rotation=90;fontFamily=Times New Roman;&quot; vertex=&quot;1&quot; parent=&quot;1&quot;&gt;&lt;mxGeometry x=&quot;31.346443272073742&quot; y=&quot;729.9394387001478&quot; width=&quot;22.730021682416364&quot; height=&quot;10.609466315586669&quot; as=&quot;geometry&quot;/&gt;&lt;/mxCell&gt;&lt;mxCell id=&quot;145&quot; value=&quot;&amp;lt;span style=&amp;quot;color: rgba(0, 0, 0, 0); font-size: 0px; text-align: start; text-wrap: nowrap;&amp;quot;&amp;gt;%3CmxGraphModel%3E%3Croot%3E%3CmxCell%20id%3D%220%22%2F%3E%3CmxCell%20id%3D%221%22%20parent%3D%220%22%2F%3E%3CmxCell%20id%3D%222%22%20value%3D%22%22%20style%3D%22rounded%3D0%3BwhiteSpace%3Dwrap%3Bhtml%3D1%3BfillColor%3D%23dae8fc%3BstrokeColor%3D%236c8ebf%3B%22%20vertex%3D%221%22%20parent%3D%221%22%3E%3CmxGeometry%20x%3D%22610%22%20y%3D%22480%22%20width%3D%2290%22%20height%3D%2240%22%20as%3D%22geometry%22%2F%3E%3C%2FmxCell%3E%3C%2Froot%3E%3C%2FmxGraphModel%3E&amp;lt;/span&amp;gt;&quot; style=&quot;rounded=0;whiteSpace=wrap;html=1;fillColor=#fff2cc;strokeColor=#d6b656;container=0;rotation=90;fontFamily=Times New Roman;&quot; vertex=&quot;1&quot; parent=&quot;1&quot;&gt;&lt;mxGeometry x=&quot;26&quot; y=&quot;704.0561299852288&quot; width=&quot;22.730021682416364&quot; height=&quot;10.609466315586669&quot; as=&quot;geometry&quot;/&gt;&lt;/mxCell&gt;&lt;mxCell id=&quot;146&quot; value=&quot;&amp;lt;span style=&amp;quot;color: rgba(0, 0, 0, 0); font-size: 0px; text-align: start; text-wrap: nowrap;&amp;quot;&amp;gt;%3CmxGraphModel%3E%3Croot%3E%3CmxCell%20id%3D%220%22%2F%3E%3CmxCell%20id%3D%221%22%20parent%3D%220%22%2F%3E%3CmxCell%20id%3D%222%22%20value%3D%22%22%20style%3D%22rounded%3D0%3BwhiteSpace%3Dwrap%3Bhtml%3D1%3BfillColor%3D%23dae8fc%3BstrokeColor%3D%236c8ebf%3B%22%20vertex%3D%221%22%20parent%3D%221%22%3E%3CmxGeometry%20x%3D%22610%22%20y%3D%22480%22%20width%3D%2290%22%20height%3D%2240%22%20as%3D%22geometry%22%2F%3E%3C%2FmxCell%3E%3C%2Froot%3E%3C%2FmxGraphModel%3E" style="rounded=1;whiteSpace=wrap;html=1;fillColor=#e1d5e7;strokeColor=#9673a6;strokeWidth=2;fontSize=22;fontFamily=Times New Roman;opacity=26;" vertex="1" parent="1">
          <mxGeometry x="110" y="573" width="1050" height="517" as="geometry" />
        </mxCell>
        <mxCell id="8brqG52jJ0TLhpy8n45_-789" value="" style="endArrow=none;dashed=1;html=1;rounded=0;fillColor=#e1d5e7;strokeColor=#9673a6;strokeWidth=4;fontFamily=Times New Roman;exitX=0.04;exitY=0.017;exitDx=0;exitDy=0;exitPerimeter=0;entryX=0;entryY=1;entryDx=0;entryDy=0;" edge="1" parent="1" target="8brqG52jJ0TLhpy8n45_-767" source="8brqG52jJ0TLhpy8n45_-788">
          <mxGeometry width="50" height="50" relative="1" as="geometry">
            <mxPoint x="153.3199999999997" y="570.7999999999993" as="sourcePoint" />
            <mxPoint x="630" y="481.6999999999998" as="targetPoint" />
          </mxGeometry>
        </mxCell>
        <mxCell id="8brqG52jJ0TLhpy8n45_-790" value="" style="endArrow=none;dashed=1;html=1;rounded=0;fillColor=#e1d5e7;strokeColor=#9673a6;strokeWidth=4;fontFamily=Times New Roman;exitX=0.926;exitY=-0.003;exitDx=0;exitDy=0;exitPerimeter=0;entryX=1;entryY=1;entryDx=0;entryDy=0;" edge="1" parent="1" target="8brqG52jJ0TLhpy8n45_-787" source="8brqG52jJ0TLhpy8n45_-788">
          <mxGeometry width="50" height="50" relative="1" as="geometry">
            <mxPoint x="1185.8599999999997" y="567.9200000000001" as="sourcePoint" />
            <mxPoint x="793.9999999999995" y="481.6999999999998" as="targetPoint" />
          </mxGeometry>
        </mxCell>
        <mxCell id="8brqG52jJ0TLhpy8n45_-791" value="" style="rounded=0;whiteSpace=wrap;html=1;fillColor=#dae8fc;strokeColor=#6c8ebf;fontSize=18;container=0;" vertex="1" parent="1">
          <mxGeometry x="172.0999999999999" y="1049.9571875000001" width="61.05527638190955" height="20.578125" as="geometry" />
        </mxCell>
        <mxCell id="8brqG52jJ0TLhpy8n45_-792" value="&lt;font face=&quot;Times New Roman&quot;&gt;&lt;span style=&quot;font-size: 19px;&quot;&gt;&lt;i&gt;FF in Cluster&lt;sub&gt;i&lt;/sub&gt;&lt;/i&gt;&lt;/span&gt;&lt;/font&gt;" style="text;html=1;align=center;verticalAlign=middle;whiteSpace=wrap;rounded=0;flipV=0;" vertex="1" parent="1">
          <mxGeometry x="239.29251256281395" y="1043" width="117" height="34.5" as="geometry" />
        </mxCell>
        <mxCell id="8brqG52jJ0TLhpy8n45_-793" value="" style="rounded=0;whiteSpace=wrap;html=1;fillColor=#f8cecc;strokeColor=#b85450;opacity=60;fontSize=18;container=0;" vertex="1" parent="1">
          <mxGeometry x="417.58070351758806" y="1049.9562500000002" width="30.527638190954775" height="20.578125" as="geometry" />
        </mxCell>
        <mxCell id="8brqG52jJ0TLhpy8n45_-794" value="&lt;font face=&quot;Times New Roman&quot;&gt;&lt;span style=&quot;font-size: 19px;&quot;&gt;&lt;i&gt;BUF of&amp;nbsp; Cluster&lt;sub&gt;i&lt;/sub&gt;&lt;/i&gt;&lt;/span&gt;&lt;/font&gt;" style="text;html=1;align=center;verticalAlign=middle;whiteSpace=wrap;rounded=0;flipV=0;" vertex="1" parent="1">
          <mxGeometry x="451.6325125628141" y="1043" width="150" height="34.5" as="geometry" />
        </mxCell>
        <mxCell id="8brqG52jJ0TLhpy8n45_-796" value="" style="rounded=0;whiteSpace=wrap;html=1;fillColor=#d5e8d4;strokeColor=#82b366;fontSize=18;container=0;" vertex="1" parent="1">
          <mxGeometry x="170.4599999999998" y="1015.4571875000001" width="61.05527638190955" height="20.578125" as="geometry" />
        </mxCell>
        <mxCell id="8brqG52jJ0TLhpy8n45_-797" value="&lt;font face=&quot;Times New Roman&quot;&gt;&lt;span style=&quot;font-size: 19px;&quot;&gt;&lt;i&gt;FF in Cluster&lt;sub&gt;i&amp;nbsp;&amp;nbsp;&lt;/sub&gt;removed&lt;/i&gt;&lt;/span&gt;&lt;/font&gt;" style="text;html=1;align=center;verticalAlign=middle;whiteSpace=wrap;rounded=0;flipV=0;" vertex="1" parent="1">
          <mxGeometry x="225.53999999999996" y="1008.5" width="222.66" height="34.5" as="geometry" />
        </mxCell>
        <mxCell id="8brqG52jJ0TLhpy8n45_-911" value="" style="rounded=1;whiteSpace=wrap;html=1;fillColor=#f5f5f5;fontColor=#333333;strokeColor=#666666;" vertex="1" parent="1">
          <mxGeometry x="160" y="630" width="413" height="291" as="geometry" />
        </mxCell>
        <mxCell id="8brqG52jJ0TLhpy8n45_-912" value="" style="rounded=0;whiteSpace=wrap;html=1;fillColor=#f8cecc;strokeColor=#b85450;" vertex="1" parent="1">
          <mxGeometry x="340" y="760" width="20" height="20" as="geometry" />
        </mxCell>
        <mxCell id="8brqG52jJ0TLhpy8n45_-913" value="" style="rounded=0;whiteSpace=wrap;html=1;fillColor=#f8cecc;strokeColor=#b85450;" vertex="1" parent="1">
          <mxGeometry x="260" y="640" width="20" height="20" as="geometry" />
        </mxCell>
        <mxCell id="8brqG52jJ0TLhpy8n45_-914" value="" style="rounded=0;whiteSpace=wrap;html=1;fillColor=#f8cecc;strokeColor=#b85450;" vertex="1" parent="1">
          <mxGeometry x="499" y="840" width="20" height="21" as="geometry" />
        </mxCell>
        <mxCell id="8brqG52jJ0TLhpy8n45_-915" value="" style="shape=waypoint;sketch=0;fillStyle=solid;size=6;pointerEvents=1;points=[];fillColor=#f5f5f5;resizable=0;rotatable=0;perimeter=centerPerimeter;snapToPoint=1;strokeWidth=0;fontColor=#333333;strokeColor=#666666;opacity=30;" vertex="1" parent="1">
          <mxGeometry x="280" y="700" width="20" height="20" as="geometry" />
        </mxCell>
        <mxCell id="8brqG52jJ0TLhpy8n45_-916" value="" style="shape=waypoint;sketch=0;fillStyle=solid;size=6;pointerEvents=1;points=[];fillColor=#f5f5f5;resizable=0;rotatable=0;perimeter=centerPerimeter;snapToPoint=1;strokeWidth=0;fontColor=#333333;strokeColor=#666666;opacity=30;" vertex="1" parent="1">
          <mxGeometry x="300" y="720" width="20" height="20" as="geometry" />
        </mxCell>
        <mxCell id="8brqG52jJ0TLhpy8n45_-917" value="" style="shape=waypoint;sketch=0;fillStyle=solid;size=6;pointerEvents=1;points=[];fillColor=#f5f5f5;resizable=0;rotatable=0;perimeter=centerPerimeter;snapToPoint=1;strokeWidth=0;fontColor=#333333;strokeColor=#666666;opacity=30;" vertex="1" parent="1">
          <mxGeometry x="320" y="740" width="20" height="20" as="geometry" />
        </mxCell>
        <mxCell id="8brqG52jJ0TLhpy8n45_-918" value="" style="shape=waypoint;sketch=0;fillStyle=solid;size=6;pointerEvents=1;points=[];fillColor=#f5f5f5;resizable=0;rotatable=0;perimeter=centerPerimeter;snapToPoint=1;strokeWidth=0;fontColor=#333333;strokeColor=#666666;opacity=30;" vertex="1" parent="1">
          <mxGeometry x="360" y="780" width="20" height="20" as="geometry" />
        </mxCell>
        <mxCell id="8brqG52jJ0TLhpy8n45_-919" value="" style="shape=waypoint;sketch=0;fillStyle=solid;size=6;pointerEvents=1;points=[];fillColor=#f5f5f5;resizable=0;rotatable=0;perimeter=centerPerimeter;snapToPoint=1;strokeWidth=0;fontColor=#333333;strokeColor=#666666;opacity=30;" vertex="1" parent="1">
          <mxGeometry x="380" y="800" width="20" height="20" as="geometry" />
        </mxCell>
        <mxCell id="8brqG52jJ0TLhpy8n45_-920" value="" style="shape=waypoint;sketch=0;fillStyle=solid;size=6;pointerEvents=1;points=[];fillColor=#f5f5f5;resizable=0;rotatable=0;perimeter=centerPerimeter;snapToPoint=1;strokeWidth=0;fontColor=#333333;strokeColor=#666666;opacity=30;" vertex="1" parent="1">
          <mxGeometry x="400" y="820" width="20" height="20" as="geometry" />
        </mxCell>
        <mxCell id="8brqG52jJ0TLhpy8n45_-921" value="" style="shape=waypoint;sketch=0;fillStyle=solid;size=6;pointerEvents=1;points=[];fillColor=#f5f5f5;resizable=0;rotatable=0;perimeter=centerPerimeter;snapToPoint=1;strokeWidth=0;fontColor=#333333;strokeColor=#666666;opacity=30;" vertex="1" parent="1">
          <mxGeometry x="280" y="720" width="20" height="20" as="geometry" />
        </mxCell>
        <mxCell id="8brqG52jJ0TLhpy8n45_-922" value="" style="shape=waypoint;sketch=0;fillStyle=solid;size=6;pointerEvents=1;points=[];fillColor=#f5f5f5;resizable=0;rotatable=0;perimeter=centerPerimeter;snapToPoint=1;strokeWidth=0;fontColor=#333333;strokeColor=#666666;opacity=30;" vertex="1" parent="1">
          <mxGeometry x="300" y="740" width="20" height="20" as="geometry" />
        </mxCell>
        <mxCell id="8brqG52jJ0TLhpy8n45_-923" value="" style="shape=waypoint;sketch=0;fillStyle=solid;size=6;pointerEvents=1;points=[];fillColor=#f5f5f5;resizable=0;rotatable=0;perimeter=centerPerimeter;snapToPoint=1;strokeWidth=0;fontColor=#333333;strokeColor=#666666;opacity=30;" vertex="1" parent="1">
          <mxGeometry x="320" y="760" width="20" height="20" as="geometry" />
        </mxCell>
        <mxCell id="8brqG52jJ0TLhpy8n45_-924" value="" style="shape=waypoint;sketch=0;fillStyle=solid;size=6;pointerEvents=1;points=[];fillColor=#f5f5f5;resizable=0;rotatable=0;perimeter=centerPerimeter;snapToPoint=1;strokeWidth=0;fontColor=#333333;strokeColor=#666666;opacity=30;" vertex="1" parent="1">
          <mxGeometry x="340" y="780" width="20" height="20" as="geometry" />
        </mxCell>
        <mxCell id="8brqG52jJ0TLhpy8n45_-925" value="" style="shape=waypoint;sketch=0;fillStyle=solid;size=6;pointerEvents=1;points=[];fillColor=#f5f5f5;resizable=0;rotatable=0;perimeter=centerPerimeter;snapToPoint=1;strokeWidth=0;fontColor=#333333;strokeColor=#666666;opacity=30;" vertex="1" parent="1">
          <mxGeometry x="360" y="800" width="20" height="20" as="geometry" />
        </mxCell>
        <mxCell id="8brqG52jJ0TLhpy8n45_-926" value="" style="shape=waypoint;sketch=0;fillStyle=solid;size=6;pointerEvents=1;points=[];fillColor=#f5f5f5;resizable=0;rotatable=0;perimeter=centerPerimeter;snapToPoint=1;strokeWidth=0;fontColor=#333333;strokeColor=#666666;opacity=30;" vertex="1" parent="1">
          <mxGeometry x="380" y="820" width="20" height="20" as="geometry" />
        </mxCell>
        <mxCell id="8brqG52jJ0TLhpy8n45_-927" value="" style="shape=waypoint;sketch=0;fillStyle=solid;size=6;pointerEvents=1;points=[];fillColor=#f5f5f5;resizable=0;rotatable=0;perimeter=centerPerimeter;snapToPoint=1;strokeWidth=0;fontColor=#333333;strokeColor=#666666;opacity=30;" vertex="1" parent="1">
          <mxGeometry x="280" y="740" width="20" height="20" as="geometry" />
        </mxCell>
        <mxCell id="8brqG52jJ0TLhpy8n45_-928" value="" style="shape=waypoint;sketch=0;fillStyle=solid;size=6;pointerEvents=1;points=[];fillColor=#f5f5f5;resizable=0;rotatable=0;perimeter=centerPerimeter;snapToPoint=1;strokeWidth=0;fontColor=#333333;strokeColor=#666666;opacity=30;" vertex="1" parent="1">
          <mxGeometry x="300" y="760" width="20" height="20" as="geometry" />
        </mxCell>
        <mxCell id="8brqG52jJ0TLhpy8n45_-929" value="" style="shape=waypoint;sketch=0;fillStyle=solid;size=6;pointerEvents=1;points=[];fillColor=#f5f5f5;resizable=0;rotatable=0;perimeter=centerPerimeter;snapToPoint=1;strokeWidth=0;fontColor=#333333;strokeColor=#666666;opacity=30;" vertex="1" parent="1">
          <mxGeometry x="320" y="780" width="20" height="20" as="geometry" />
        </mxCell>
        <mxCell id="8brqG52jJ0TLhpy8n45_-930" value="" style="shape=waypoint;sketch=0;fillStyle=solid;size=6;pointerEvents=1;points=[];fillColor=#f5f5f5;resizable=0;rotatable=0;perimeter=centerPerimeter;snapToPoint=1;strokeWidth=0;fontColor=#333333;strokeColor=#666666;opacity=30;" vertex="1" parent="1">
          <mxGeometry x="340" y="800" width="20" height="20" as="geometry" />
        </mxCell>
        <mxCell id="8brqG52jJ0TLhpy8n45_-931" value="" style="shape=waypoint;sketch=0;fillStyle=solid;size=6;pointerEvents=1;points=[];fillColor=#f5f5f5;resizable=0;rotatable=0;perimeter=centerPerimeter;snapToPoint=1;strokeWidth=0;fontColor=#333333;strokeColor=#666666;opacity=30;" vertex="1" parent="1">
          <mxGeometry x="360" y="820" width="20" height="20" as="geometry" />
        </mxCell>
        <mxCell id="8brqG52jJ0TLhpy8n45_-932" value="" style="shape=waypoint;sketch=0;fillStyle=solid;size=6;pointerEvents=1;points=[];fillColor=#f5f5f5;resizable=0;rotatable=0;perimeter=centerPerimeter;snapToPoint=1;strokeWidth=0;fontColor=#333333;strokeColor=#666666;opacity=30;" vertex="1" parent="1">
          <mxGeometry x="280" y="760" width="20" height="20" as="geometry" />
        </mxCell>
        <mxCell id="8brqG52jJ0TLhpy8n45_-933" value="" style="shape=waypoint;sketch=0;fillStyle=solid;size=6;pointerEvents=1;points=[];fillColor=#f5f5f5;resizable=0;rotatable=0;perimeter=centerPerimeter;snapToPoint=1;strokeWidth=0;fontColor=#333333;strokeColor=#666666;opacity=30;" vertex="1" parent="1">
          <mxGeometry x="300" y="780" width="20" height="20" as="geometry" />
        </mxCell>
        <mxCell id="8brqG52jJ0TLhpy8n45_-934" value="" style="shape=waypoint;sketch=0;fillStyle=solid;size=6;pointerEvents=1;points=[];fillColor=#f5f5f5;resizable=0;rotatable=0;perimeter=centerPerimeter;snapToPoint=1;strokeWidth=0;fontColor=#333333;strokeColor=#666666;opacity=30;" vertex="1" parent="1">
          <mxGeometry x="320" y="800" width="20" height="20" as="geometry" />
        </mxCell>
        <mxCell id="8brqG52jJ0TLhpy8n45_-935" value="" style="shape=waypoint;sketch=0;fillStyle=solid;size=6;pointerEvents=1;points=[];fillColor=#f5f5f5;resizable=0;rotatable=0;perimeter=centerPerimeter;snapToPoint=1;strokeWidth=0;fontColor=#333333;strokeColor=#666666;opacity=30;" vertex="1" parent="1">
          <mxGeometry x="340" y="820" width="20" height="20" as="geometry" />
        </mxCell>
        <mxCell id="8brqG52jJ0TLhpy8n45_-936" value="" style="shape=waypoint;sketch=0;fillStyle=solid;size=6;pointerEvents=1;points=[];fillColor=#f5f5f5;resizable=0;rotatable=0;perimeter=centerPerimeter;snapToPoint=1;strokeWidth=0;fontColor=#333333;strokeColor=#666666;opacity=30;" vertex="1" parent="1">
          <mxGeometry x="280" y="780" width="20" height="20" as="geometry" />
        </mxCell>
        <mxCell id="8brqG52jJ0TLhpy8n45_-937" value="" style="shape=waypoint;sketch=0;fillStyle=solid;size=6;pointerEvents=1;points=[];fillColor=#f5f5f5;resizable=0;rotatable=0;perimeter=centerPerimeter;snapToPoint=1;strokeWidth=0;fontColor=#333333;strokeColor=#666666;opacity=30;" vertex="1" parent="1">
          <mxGeometry x="300" y="800" width="20" height="20" as="geometry" />
        </mxCell>
        <mxCell id="8brqG52jJ0TLhpy8n45_-938" value="" style="shape=waypoint;sketch=0;fillStyle=solid;size=6;pointerEvents=1;points=[];fillColor=#f5f5f5;resizable=0;rotatable=0;perimeter=centerPerimeter;snapToPoint=1;strokeWidth=0;fontColor=#333333;strokeColor=#666666;opacity=30;" vertex="1" parent="1">
          <mxGeometry x="320" y="820" width="20" height="20" as="geometry" />
        </mxCell>
        <mxCell id="8brqG52jJ0TLhpy8n45_-939" value="" style="shape=waypoint;sketch=0;fillStyle=solid;size=6;pointerEvents=1;points=[];fillColor=#f5f5f5;resizable=0;rotatable=0;perimeter=centerPerimeter;snapToPoint=1;strokeWidth=0;fontColor=#333333;strokeColor=#666666;opacity=30;" vertex="1" parent="1">
          <mxGeometry x="280" y="820" width="20" height="20" as="geometry" />
        </mxCell>
        <mxCell id="8brqG52jJ0TLhpy8n45_-940" value="" style="shape=waypoint;sketch=0;fillStyle=solid;size=6;pointerEvents=1;points=[];fillColor=#f5f5f5;resizable=0;rotatable=0;perimeter=centerPerimeter;snapToPoint=1;strokeWidth=0;fontColor=#333333;strokeColor=#666666;opacity=30;" vertex="1" parent="1">
          <mxGeometry x="300" y="820" width="20" height="20" as="geometry" />
        </mxCell>
        <mxCell id="8brqG52jJ0TLhpy8n45_-941" value="" style="shape=waypoint;sketch=0;fillStyle=solid;size=6;pointerEvents=1;points=[];fillColor=#f5f5f5;resizable=0;rotatable=0;perimeter=centerPerimeter;snapToPoint=1;strokeWidth=0;fontColor=#333333;strokeColor=#666666;opacity=30;" vertex="1" parent="1">
          <mxGeometry x="280" y="800" width="20" height="20" as="geometry" />
        </mxCell>
        <mxCell id="8brqG52jJ0TLhpy8n45_-942" value="" style="shape=waypoint;sketch=0;fillStyle=solid;size=6;pointerEvents=1;points=[];fillColor=#f5f5f5;resizable=0;rotatable=0;perimeter=centerPerimeter;snapToPoint=1;strokeWidth=0;fontColor=#333333;strokeColor=#666666;opacity=30;" vertex="1" parent="1">
          <mxGeometry x="360" y="760" width="20" height="20" as="geometry" />
        </mxCell>
        <mxCell id="8brqG52jJ0TLhpy8n45_-943" value="" style="shape=waypoint;sketch=0;fillStyle=solid;size=6;pointerEvents=1;points=[];fillColor=#f5f5f5;resizable=0;rotatable=0;perimeter=centerPerimeter;snapToPoint=1;strokeWidth=0;fontColor=#333333;strokeColor=#666666;opacity=30;" vertex="1" parent="1">
          <mxGeometry x="380" y="760" width="20" height="20" as="geometry" />
        </mxCell>
        <mxCell id="8brqG52jJ0TLhpy8n45_-944" value="" style="shape=waypoint;sketch=0;fillStyle=solid;size=6;pointerEvents=1;points=[];fillColor=#f5f5f5;resizable=0;rotatable=0;perimeter=centerPerimeter;snapToPoint=1;strokeWidth=0;fontColor=#333333;strokeColor=#666666;opacity=30;" vertex="1" parent="1">
          <mxGeometry x="400" y="780" width="20" height="20" as="geometry" />
        </mxCell>
        <mxCell id="8brqG52jJ0TLhpy8n45_-945" value="" style="shape=waypoint;sketch=0;fillStyle=solid;size=6;pointerEvents=1;points=[];fillColor=#f5f5f5;resizable=0;rotatable=0;perimeter=centerPerimeter;snapToPoint=1;strokeWidth=0;fontColor=#333333;strokeColor=#666666;opacity=30;" vertex="1" parent="1">
          <mxGeometry x="380" y="780" width="20" height="20" as="geometry" />
        </mxCell>
        <mxCell id="8brqG52jJ0TLhpy8n45_-946" value="" style="shape=waypoint;sketch=0;fillStyle=solid;size=6;pointerEvents=1;points=[];fillColor=#f5f5f5;resizable=0;rotatable=0;perimeter=centerPerimeter;snapToPoint=1;strokeWidth=0;fontColor=#333333;strokeColor=#666666;opacity=30;" vertex="1" parent="1">
          <mxGeometry x="400" y="800" width="20" height="20" as="geometry" />
        </mxCell>
        <mxCell id="8brqG52jJ0TLhpy8n45_-947" value="" style="shape=waypoint;sketch=0;fillStyle=solid;size=6;pointerEvents=1;points=[];fillColor=#f5f5f5;resizable=0;rotatable=0;perimeter=centerPerimeter;snapToPoint=1;strokeWidth=0;fontColor=#333333;strokeColor=#666666;opacity=30;" vertex="1" parent="1">
          <mxGeometry x="400" y="760" width="20" height="20" as="geometry" />
        </mxCell>
        <mxCell id="8brqG52jJ0TLhpy8n45_-948" value="" style="shape=waypoint;sketch=0;fillStyle=solid;size=6;pointerEvents=1;points=[];fillColor=#f5f5f5;resizable=0;rotatable=0;perimeter=centerPerimeter;snapToPoint=1;strokeWidth=0;fontColor=#333333;strokeColor=#666666;opacity=30;" vertex="1" parent="1">
          <mxGeometry x="400" y="740" width="20" height="20" as="geometry" />
        </mxCell>
        <mxCell id="8brqG52jJ0TLhpy8n45_-949" value="" style="shape=waypoint;sketch=0;fillStyle=solid;size=6;pointerEvents=1;points=[];fillColor=#f5f5f5;resizable=0;rotatable=0;perimeter=centerPerimeter;snapToPoint=1;strokeWidth=0;fontColor=#333333;strokeColor=#666666;opacity=30;" vertex="1" parent="1">
          <mxGeometry x="300" y="700" width="20" height="20" as="geometry" />
        </mxCell>
        <mxCell id="8brqG52jJ0TLhpy8n45_-950" value="" style="shape=waypoint;sketch=0;fillStyle=solid;size=6;pointerEvents=1;points=[];fillColor=#f5f5f5;resizable=0;rotatable=0;perimeter=centerPerimeter;snapToPoint=1;strokeWidth=0;fontColor=#333333;strokeColor=#666666;opacity=30;" vertex="1" parent="1">
          <mxGeometry x="320" y="720" width="20" height="20" as="geometry" />
        </mxCell>
        <mxCell id="8brqG52jJ0TLhpy8n45_-951" value="" style="shape=waypoint;sketch=0;fillStyle=solid;size=6;pointerEvents=1;points=[];fillColor=#f5f5f5;resizable=0;rotatable=0;perimeter=centerPerimeter;snapToPoint=1;strokeWidth=0;fontColor=#333333;strokeColor=#666666;opacity=30;" vertex="1" parent="1">
          <mxGeometry x="340" y="740" width="20" height="20" as="geometry" />
        </mxCell>
        <mxCell id="8brqG52jJ0TLhpy8n45_-952" value="" style="shape=waypoint;sketch=0;fillStyle=solid;size=6;pointerEvents=1;points=[];fillColor=#f5f5f5;resizable=0;rotatable=0;perimeter=centerPerimeter;snapToPoint=1;strokeWidth=0;fontColor=#333333;strokeColor=#666666;opacity=30;" vertex="1" parent="1">
          <mxGeometry x="360" y="740" width="20" height="20" as="geometry" />
        </mxCell>
        <mxCell id="8brqG52jJ0TLhpy8n45_-953" value="" style="shape=waypoint;sketch=0;fillStyle=solid;size=6;pointerEvents=1;points=[];fillColor=#f5f5f5;resizable=0;rotatable=0;perimeter=centerPerimeter;snapToPoint=1;strokeWidth=0;fontColor=#333333;strokeColor=#666666;opacity=30;" vertex="1" parent="1">
          <mxGeometry x="320" y="700" width="20" height="20" as="geometry" />
        </mxCell>
        <mxCell id="8brqG52jJ0TLhpy8n45_-954" value="" style="shape=waypoint;sketch=0;fillStyle=solid;size=6;pointerEvents=1;points=[];fillColor=#f5f5f5;resizable=0;rotatable=0;perimeter=centerPerimeter;snapToPoint=1;strokeWidth=0;fontColor=#333333;strokeColor=#666666;opacity=30;" vertex="1" parent="1">
          <mxGeometry x="340" y="700" width="20" height="20" as="geometry" />
        </mxCell>
        <mxCell id="8brqG52jJ0TLhpy8n45_-955" value="" style="shape=waypoint;sketch=0;fillStyle=solid;size=6;pointerEvents=1;points=[];fillColor=#f5f5f5;resizable=0;rotatable=0;perimeter=centerPerimeter;snapToPoint=1;strokeWidth=0;fontColor=#333333;strokeColor=#666666;opacity=30;" vertex="1" parent="1">
          <mxGeometry x="360" y="720" width="20" height="20" as="geometry" />
        </mxCell>
        <mxCell id="8brqG52jJ0TLhpy8n45_-956" value="" style="shape=waypoint;sketch=0;fillStyle=solid;size=6;pointerEvents=1;points=[];fillColor=#f5f5f5;resizable=0;rotatable=0;perimeter=centerPerimeter;snapToPoint=1;strokeWidth=0;fontColor=#333333;strokeColor=#666666;opacity=30;" vertex="1" parent="1">
          <mxGeometry x="380" y="740" width="20" height="20" as="geometry" />
        </mxCell>
        <mxCell id="8brqG52jJ0TLhpy8n45_-957" value="" style="shape=waypoint;sketch=0;fillStyle=solid;size=6;pointerEvents=1;points=[];fillColor=#f5f5f5;resizable=0;rotatable=0;perimeter=centerPerimeter;snapToPoint=1;strokeWidth=0;fontColor=#333333;strokeColor=#666666;opacity=30;" vertex="1" parent="1">
          <mxGeometry x="340" y="720" width="20" height="20" as="geometry" />
        </mxCell>
        <mxCell id="8brqG52jJ0TLhpy8n45_-958" value="" style="shape=waypoint;sketch=0;fillStyle=solid;size=6;pointerEvents=1;points=[];fillColor=#f5f5f5;resizable=0;rotatable=0;perimeter=centerPerimeter;snapToPoint=1;strokeWidth=0;fontColor=#333333;strokeColor=#666666;opacity=30;" vertex="1" parent="1">
          <mxGeometry x="380" y="720" width="20" height="20" as="geometry" />
        </mxCell>
        <mxCell id="8brqG52jJ0TLhpy8n45_-959" value="" style="shape=waypoint;sketch=0;fillStyle=solid;size=6;pointerEvents=1;points=[];fillColor=#f5f5f5;resizable=0;rotatable=0;perimeter=centerPerimeter;snapToPoint=1;strokeWidth=0;fontColor=#333333;strokeColor=#666666;opacity=30;" vertex="1" parent="1">
          <mxGeometry x="400" y="700" width="20" height="20" as="geometry" />
        </mxCell>
        <mxCell id="8brqG52jJ0TLhpy8n45_-960" value="" style="shape=waypoint;sketch=0;fillStyle=solid;size=6;pointerEvents=1;points=[];fillColor=#f5f5f5;resizable=0;rotatable=0;perimeter=centerPerimeter;snapToPoint=1;strokeWidth=0;fontColor=#333333;strokeColor=#666666;opacity=30;" vertex="1" parent="1">
          <mxGeometry x="400" y="720" width="20" height="20" as="geometry" />
        </mxCell>
        <mxCell id="8brqG52jJ0TLhpy8n45_-961" value="" style="shape=waypoint;sketch=0;fillStyle=solid;size=6;pointerEvents=1;points=[];fillColor=#f5f5f5;resizable=0;rotatable=0;perimeter=centerPerimeter;snapToPoint=1;strokeWidth=0;fontColor=#333333;strokeColor=#666666;opacity=30;" vertex="1" parent="1">
          <mxGeometry x="380" y="700" width="20" height="20" as="geometry" />
        </mxCell>
        <mxCell id="8brqG52jJ0TLhpy8n45_-962" value="" style="shape=waypoint;sketch=0;fillStyle=solid;size=6;pointerEvents=1;points=[];fillColor=#f5f5f5;resizable=0;rotatable=0;perimeter=centerPerimeter;snapToPoint=1;strokeWidth=0;fontColor=#333333;strokeColor=#666666;opacity=30;" vertex="1" parent="1">
          <mxGeometry x="360" y="700" width="20" height="20" as="geometry" />
        </mxCell>
        <mxCell id="8brqG52jJ0TLhpy8n45_-963" value="" style="shape=waypoint;sketch=0;fillStyle=solid;size=6;pointerEvents=1;points=[];fillColor=#f5f5f5;resizable=0;rotatable=0;perimeter=centerPerimeter;snapToPoint=1;strokeWidth=0;fontColor=#333333;strokeColor=#666666;opacity=30;" vertex="1" parent="1">
          <mxGeometry x="340" y="760" width="20" height="20" as="geometry" />
        </mxCell>
        <mxCell id="8brqG52jJ0TLhpy8n45_-964" value="" style="rounded=0;whiteSpace=wrap;html=1;fillColor=#f8cecc;strokeColor=#b85450;" vertex="1" parent="1">
          <mxGeometry x="420" y="640" width="20" height="20" as="geometry" />
        </mxCell>
        <mxCell id="8brqG52jJ0TLhpy8n45_-965" value="" style="ellipse;whiteSpace=wrap;html=1;aspect=fixed;fillColor=#e1d5e7;strokeColor=#9673a6;strokeWidth=3;" vertex="1" parent="1">
          <mxGeometry x="190" y="890" width="20" height="20" as="geometry" />
        </mxCell>
        <mxCell id="8brqG52jJ0TLhpy8n45_-966" value="" style="endArrow=classic;html=1;rounded=0;fontSize=12;startSize=8;endSize=8;curved=1;entryX=0.5;entryY=0.5;entryDx=0;entryDy=0;entryPerimeter=0;" edge="1" parent="1" source="8brqG52jJ0TLhpy8n45_-963" target="8brqG52jJ0TLhpy8n45_-913">
          <mxGeometry width="50" height="50" relative="1" as="geometry">
            <mxPoint x="330" y="780" as="sourcePoint" />
            <mxPoint x="380" y="730" as="targetPoint" />
          </mxGeometry>
        </mxCell>
        <mxCell id="8brqG52jJ0TLhpy8n45_-967" value="" style="endArrow=classic;html=1;rounded=0;fontSize=12;startSize=8;endSize=8;curved=1;entryX=0.5;entryY=0.5;entryDx=0;entryDy=0;entryPerimeter=0;" edge="1" parent="1" source="8brqG52jJ0TLhpy8n45_-963" target="8brqG52jJ0TLhpy8n45_-964">
          <mxGeometry width="50" height="50" relative="1" as="geometry">
            <mxPoint x="290" y="760" as="sourcePoint" />
            <mxPoint x="340" y="710" as="targetPoint" />
          </mxGeometry>
        </mxCell>
        <mxCell id="8brqG52jJ0TLhpy8n45_-968" value="" style="endArrow=classic;html=1;rounded=0;fontSize=12;startSize=8;endSize=8;curved=1;entryX=0.55;entryY=0.476;entryDx=0;entryDy=0;entryPerimeter=0;" edge="1" parent="1" source="8brqG52jJ0TLhpy8n45_-963" target="8brqG52jJ0TLhpy8n45_-914">
          <mxGeometry width="50" height="50" relative="1" as="geometry">
            <mxPoint x="330" y="780" as="sourcePoint" />
            <mxPoint x="380" y="730" as="targetPoint" />
          </mxGeometry>
        </mxCell>
        <mxCell id="8brqG52jJ0TLhpy8n45_-969" value="" style="endArrow=classic;html=1;rounded=0;fontSize=12;startSize=8;endSize=8;curved=1;exitX=1;exitY=0;exitDx=0;exitDy=0;exitPerimeter=0;" edge="1" parent="1" source="8brqG52jJ0TLhpy8n45_-965">
          <mxGeometry width="50" height="50" relative="1" as="geometry">
            <mxPoint x="230" y="880" as="sourcePoint" />
            <mxPoint x="350.6049636314656" y="770" as="targetPoint" />
          </mxGeometry>
        </mxCell>
        <mxCell id="8brqG52jJ0TLhpy8n45_-970" value="" style="rounded=0;whiteSpace=wrap;html=1;fillColor=none;" vertex="1" parent="1">
          <mxGeometry x="290" y="710" width="120" height="120" as="geometry" />
        </mxCell>
        <mxCell id="8brqG52jJ0TLhpy8n45_-971" value="" style="shape=curlyBracket;whiteSpace=wrap;html=1;rounded=1;flipH=1;labelPosition=right;verticalLabelPosition=middle;align=left;verticalAlign=middle;rotation=90;" vertex="1" parent="1">
          <mxGeometry x="340" y="784" width="20" height="120" as="geometry" />
        </mxCell>
        <mxCell id="8brqG52jJ0TLhpy8n45_-972" value="&lt;font face=&quot;Times New Roman&quot;&gt;&lt;b&gt;R&lt;/b&gt;&lt;/font&gt;" style="text;html=1;align=center;verticalAlign=middle;whiteSpace=wrap;rounded=0;fontSize=16;" vertex="1" parent="1">
          <mxGeometry x="325" y="851" width="60" height="30" as="geometry" />
        </mxCell>
        <mxCell id="8brqG52jJ0TLhpy8n45_-973" value="" style="rounded=1;whiteSpace=wrap;html=1;fillColor=#f5f5f5;fontColor=#333333;strokeColor=#666666;" vertex="1" parent="1">
          <mxGeometry x="680" y="628.5" width="413" height="291" as="geometry" />
        </mxCell>
        <mxCell id="8brqG52jJ0TLhpy8n45_-974" value="" style="rounded=0;whiteSpace=wrap;html=1;fillColor=#f8cecc;strokeColor=#b85450;" vertex="1" parent="1">
          <mxGeometry x="860" y="758.5" width="20" height="20" as="geometry" />
        </mxCell>
        <mxCell id="8brqG52jJ0TLhpy8n45_-975" value="" style="rounded=0;whiteSpace=wrap;html=1;fillColor=#f8cecc;strokeColor=#b85450;" vertex="1" parent="1">
          <mxGeometry x="780" y="638.5" width="20" height="20" as="geometry" />
        </mxCell>
        <mxCell id="8brqG52jJ0TLhpy8n45_-976" value="" style="rounded=0;whiteSpace=wrap;html=1;fillColor=#f8cecc;strokeColor=#b85450;" vertex="1" parent="1">
          <mxGeometry x="1019" y="838.5" width="20" height="21" as="geometry" />
        </mxCell>
        <mxCell id="8brqG52jJ0TLhpy8n45_-977" value="" style="shape=waypoint;sketch=0;fillStyle=solid;size=6;pointerEvents=1;points=[];fillColor=#f5f5f5;resizable=0;rotatable=0;perimeter=centerPerimeter;snapToPoint=1;strokeWidth=0;fontColor=#333333;strokeColor=#666666;opacity=30;" vertex="1" parent="1">
          <mxGeometry x="800" y="698.5" width="20" height="20" as="geometry" />
        </mxCell>
        <mxCell id="8brqG52jJ0TLhpy8n45_-978" value="" style="shape=waypoint;sketch=0;fillStyle=solid;size=6;pointerEvents=1;points=[];fillColor=#f5f5f5;resizable=0;rotatable=0;perimeter=centerPerimeter;snapToPoint=1;strokeWidth=0;fontColor=#333333;strokeColor=#666666;opacity=30;" vertex="1" parent="1">
          <mxGeometry x="820" y="718.5" width="20" height="20" as="geometry" />
        </mxCell>
        <mxCell id="8brqG52jJ0TLhpy8n45_-979" value="" style="shape=waypoint;sketch=0;fillStyle=solid;size=6;pointerEvents=1;points=[];fillColor=#f5f5f5;resizable=0;rotatable=0;perimeter=centerPerimeter;snapToPoint=1;strokeWidth=0;fontColor=#333333;strokeColor=#666666;opacity=30;" vertex="1" parent="1">
          <mxGeometry x="840" y="738.5" width="20" height="20" as="geometry" />
        </mxCell>
        <mxCell id="8brqG52jJ0TLhpy8n45_-980" value="" style="shape=waypoint;sketch=0;fillStyle=solid;size=6;pointerEvents=1;points=[];fillColor=#f5f5f5;resizable=0;rotatable=0;perimeter=centerPerimeter;snapToPoint=1;strokeWidth=0;fontColor=#333333;strokeColor=#666666;opacity=30;" vertex="1" parent="1">
          <mxGeometry x="880" y="778.5" width="20" height="20" as="geometry" />
        </mxCell>
        <mxCell id="8brqG52jJ0TLhpy8n45_-981" value="" style="shape=waypoint;sketch=0;fillStyle=solid;size=6;pointerEvents=1;points=[];fillColor=#f5f5f5;resizable=0;rotatable=0;perimeter=centerPerimeter;snapToPoint=1;strokeWidth=0;fontColor=#333333;strokeColor=#666666;opacity=30;" vertex="1" parent="1">
          <mxGeometry x="900" y="798.5" width="20" height="20" as="geometry" />
        </mxCell>
        <mxCell id="8brqG52jJ0TLhpy8n45_-982" value="" style="shape=waypoint;sketch=0;fillStyle=solid;size=6;pointerEvents=1;points=[];fillColor=#f5f5f5;resizable=0;rotatable=0;perimeter=centerPerimeter;snapToPoint=1;strokeWidth=0;fontColor=#333333;strokeColor=#666666;opacity=30;" vertex="1" parent="1">
          <mxGeometry x="920" y="818.5" width="20" height="20" as="geometry" />
        </mxCell>
        <mxCell id="8brqG52jJ0TLhpy8n45_-983" value="" style="shape=waypoint;sketch=0;fillStyle=solid;size=6;pointerEvents=1;points=[];fillColor=#f5f5f5;resizable=0;rotatable=0;perimeter=centerPerimeter;snapToPoint=1;strokeWidth=0;fontColor=#333333;strokeColor=#666666;opacity=30;" vertex="1" parent="1">
          <mxGeometry x="800" y="718.5" width="20" height="20" as="geometry" />
        </mxCell>
        <mxCell id="8brqG52jJ0TLhpy8n45_-984" value="" style="shape=waypoint;sketch=0;fillStyle=solid;size=6;pointerEvents=1;points=[];fillColor=#f5f5f5;resizable=0;rotatable=0;perimeter=centerPerimeter;snapToPoint=1;strokeWidth=0;fontColor=#333333;strokeColor=#666666;opacity=30;" vertex="1" parent="1">
          <mxGeometry x="820" y="738.5" width="20" height="20" as="geometry" />
        </mxCell>
        <mxCell id="8brqG52jJ0TLhpy8n45_-985" value="" style="shape=waypoint;sketch=0;fillStyle=solid;size=6;pointerEvents=1;points=[];fillColor=#f5f5f5;resizable=0;rotatable=0;perimeter=centerPerimeter;snapToPoint=1;strokeWidth=0;fontColor=#333333;strokeColor=#666666;opacity=30;" vertex="1" parent="1">
          <mxGeometry x="840" y="758.5" width="20" height="20" as="geometry" />
        </mxCell>
        <mxCell id="8brqG52jJ0TLhpy8n45_-986" value="" style="shape=waypoint;sketch=0;fillStyle=solid;size=6;pointerEvents=1;points=[];fillColor=#f5f5f5;resizable=0;rotatable=0;perimeter=centerPerimeter;snapToPoint=1;strokeWidth=0;fontColor=#333333;strokeColor=#666666;opacity=30;" vertex="1" parent="1">
          <mxGeometry x="860" y="778.5" width="20" height="20" as="geometry" />
        </mxCell>
        <mxCell id="8brqG52jJ0TLhpy8n45_-987" value="" style="shape=waypoint;sketch=0;fillStyle=solid;size=6;pointerEvents=1;points=[];fillColor=#f5f5f5;resizable=0;rotatable=0;perimeter=centerPerimeter;snapToPoint=1;strokeWidth=0;fontColor=#333333;strokeColor=#666666;opacity=30;" vertex="1" parent="1">
          <mxGeometry x="880" y="798.5" width="20" height="20" as="geometry" />
        </mxCell>
        <mxCell id="8brqG52jJ0TLhpy8n45_-988" value="" style="shape=waypoint;sketch=0;fillStyle=solid;size=6;pointerEvents=1;points=[];fillColor=#f5f5f5;resizable=0;rotatable=0;perimeter=centerPerimeter;snapToPoint=1;strokeWidth=0;fontColor=#333333;strokeColor=#666666;opacity=30;" vertex="1" parent="1">
          <mxGeometry x="900" y="818.5" width="20" height="20" as="geometry" />
        </mxCell>
        <mxCell id="8brqG52jJ0TLhpy8n45_-989" value="" style="shape=waypoint;sketch=0;fillStyle=solid;size=6;pointerEvents=1;points=[];fillColor=#f5f5f5;resizable=0;rotatable=0;perimeter=centerPerimeter;snapToPoint=1;strokeWidth=0;fontColor=#333333;strokeColor=#666666;opacity=30;" vertex="1" parent="1">
          <mxGeometry x="800" y="738.5" width="20" height="20" as="geometry" />
        </mxCell>
        <mxCell id="8brqG52jJ0TLhpy8n45_-990" value="" style="shape=waypoint;sketch=0;fillStyle=solid;size=6;pointerEvents=1;points=[];fillColor=#f5f5f5;resizable=0;rotatable=0;perimeter=centerPerimeter;snapToPoint=1;strokeWidth=0;fontColor=#333333;strokeColor=#666666;opacity=30;" vertex="1" parent="1">
          <mxGeometry x="820" y="758.5" width="20" height="20" as="geometry" />
        </mxCell>
        <mxCell id="8brqG52jJ0TLhpy8n45_-991" value="" style="shape=waypoint;sketch=0;fillStyle=solid;size=6;pointerEvents=1;points=[];fillColor=#f5f5f5;resizable=0;rotatable=0;perimeter=centerPerimeter;snapToPoint=1;strokeWidth=0;fontColor=#333333;strokeColor=#666666;opacity=30;" vertex="1" parent="1">
          <mxGeometry x="840" y="778.5" width="20" height="20" as="geometry" />
        </mxCell>
        <mxCell id="8brqG52jJ0TLhpy8n45_-992" value="" style="shape=waypoint;sketch=0;fillStyle=solid;size=6;pointerEvents=1;points=[];fillColor=#f5f5f5;resizable=0;rotatable=0;perimeter=centerPerimeter;snapToPoint=1;strokeWidth=0;fontColor=#333333;strokeColor=#666666;opacity=30;" vertex="1" parent="1">
          <mxGeometry x="860" y="798.5" width="20" height="20" as="geometry" />
        </mxCell>
        <mxCell id="8brqG52jJ0TLhpy8n45_-993" value="" style="shape=waypoint;sketch=0;fillStyle=solid;size=6;pointerEvents=1;points=[];fillColor=#f5f5f5;resizable=0;rotatable=0;perimeter=centerPerimeter;snapToPoint=1;strokeWidth=0;fontColor=#333333;strokeColor=#666666;opacity=30;" vertex="1" parent="1">
          <mxGeometry x="880" y="818.5" width="20" height="20" as="geometry" />
        </mxCell>
        <mxCell id="8brqG52jJ0TLhpy8n45_-994" value="" style="shape=waypoint;sketch=0;fillStyle=solid;size=6;pointerEvents=1;points=[];fillColor=#f5f5f5;resizable=0;rotatable=0;perimeter=centerPerimeter;snapToPoint=1;strokeWidth=0;fontColor=#333333;strokeColor=#666666;opacity=30;" vertex="1" parent="1">
          <mxGeometry x="800" y="758.5" width="20" height="20" as="geometry" />
        </mxCell>
        <mxCell id="8brqG52jJ0TLhpy8n45_-995" value="" style="shape=waypoint;sketch=0;fillStyle=solid;size=6;pointerEvents=1;points=[];fillColor=#f5f5f5;resizable=0;rotatable=0;perimeter=centerPerimeter;snapToPoint=1;strokeWidth=0;fontColor=#333333;strokeColor=#666666;opacity=30;" vertex="1" parent="1">
          <mxGeometry x="820" y="778.5" width="20" height="20" as="geometry" />
        </mxCell>
        <mxCell id="8brqG52jJ0TLhpy8n45_-996" value="" style="shape=waypoint;sketch=0;fillStyle=solid;size=6;pointerEvents=1;points=[];fillColor=#f5f5f5;resizable=0;rotatable=0;perimeter=centerPerimeter;snapToPoint=1;strokeWidth=0;fontColor=#333333;strokeColor=#666666;opacity=30;" vertex="1" parent="1">
          <mxGeometry x="840" y="798.5" width="20" height="20" as="geometry" />
        </mxCell>
        <mxCell id="8brqG52jJ0TLhpy8n45_-997" value="" style="shape=waypoint;sketch=0;fillStyle=solid;size=6;pointerEvents=1;points=[];fillColor=#f5f5f5;resizable=0;rotatable=0;perimeter=centerPerimeter;snapToPoint=1;strokeWidth=0;fontColor=#333333;strokeColor=#666666;opacity=30;" vertex="1" parent="1">
          <mxGeometry x="860" y="818.5" width="20" height="20" as="geometry" />
        </mxCell>
        <mxCell id="8brqG52jJ0TLhpy8n45_-998" value="" style="shape=waypoint;sketch=0;fillStyle=solid;size=6;pointerEvents=1;points=[];fillColor=#f5f5f5;resizable=0;rotatable=0;perimeter=centerPerimeter;snapToPoint=1;strokeWidth=0;fontColor=#333333;strokeColor=#666666;opacity=30;" vertex="1" parent="1">
          <mxGeometry x="800" y="778.5" width="20" height="20" as="geometry" />
        </mxCell>
        <mxCell id="8brqG52jJ0TLhpy8n45_-999" value="" style="shape=waypoint;sketch=0;fillStyle=solid;size=6;pointerEvents=1;points=[];fillColor=#f5f5f5;resizable=0;rotatable=0;perimeter=centerPerimeter;snapToPoint=1;strokeWidth=0;fontColor=#333333;strokeColor=#666666;opacity=30;" vertex="1" parent="1">
          <mxGeometry x="820" y="798.5" width="20" height="20" as="geometry" />
        </mxCell>
        <mxCell id="8brqG52jJ0TLhpy8n45_-1000" value="" style="shape=waypoint;sketch=0;fillStyle=solid;size=6;pointerEvents=1;points=[];fillColor=#f5f5f5;resizable=0;rotatable=0;perimeter=centerPerimeter;snapToPoint=1;strokeWidth=0;fontColor=#333333;strokeColor=#666666;opacity=30;" vertex="1" parent="1">
          <mxGeometry x="840" y="818.5" width="20" height="20" as="geometry" />
        </mxCell>
        <mxCell id="8brqG52jJ0TLhpy8n45_-1001" value="" style="shape=waypoint;sketch=0;fillStyle=solid;size=6;pointerEvents=1;points=[];fillColor=#f5f5f5;resizable=0;rotatable=0;perimeter=centerPerimeter;snapToPoint=1;strokeWidth=0;fontColor=#333333;strokeColor=#666666;opacity=30;" vertex="1" parent="1">
          <mxGeometry x="800" y="818.5" width="20" height="20" as="geometry" />
        </mxCell>
        <mxCell id="8brqG52jJ0TLhpy8n45_-1002" value="" style="shape=waypoint;sketch=0;fillStyle=solid;size=6;pointerEvents=1;points=[];fillColor=#f5f5f5;resizable=0;rotatable=0;perimeter=centerPerimeter;snapToPoint=1;strokeWidth=0;fontColor=#333333;strokeColor=#666666;opacity=30;" vertex="1" parent="1">
          <mxGeometry x="820" y="818.5" width="20" height="20" as="geometry" />
        </mxCell>
        <mxCell id="8brqG52jJ0TLhpy8n45_-1003" value="" style="shape=waypoint;sketch=0;fillStyle=solid;size=6;pointerEvents=1;points=[];fillColor=#f5f5f5;resizable=0;rotatable=0;perimeter=centerPerimeter;snapToPoint=1;strokeWidth=0;fontColor=#333333;strokeColor=#666666;opacity=30;" vertex="1" parent="1">
          <mxGeometry x="800" y="798.5" width="20" height="20" as="geometry" />
        </mxCell>
        <mxCell id="8brqG52jJ0TLhpy8n45_-1004" value="" style="shape=waypoint;sketch=0;fillStyle=solid;size=6;pointerEvents=1;points=[];fillColor=#f5f5f5;resizable=0;rotatable=0;perimeter=centerPerimeter;snapToPoint=1;strokeWidth=0;fontColor=#333333;strokeColor=#666666;opacity=30;" vertex="1" parent="1">
          <mxGeometry x="880" y="758.5" width="20" height="20" as="geometry" />
        </mxCell>
        <mxCell id="8brqG52jJ0TLhpy8n45_-1005" value="" style="shape=waypoint;sketch=0;fillStyle=solid;size=6;pointerEvents=1;points=[];fillColor=#f5f5f5;resizable=0;rotatable=0;perimeter=centerPerimeter;snapToPoint=1;strokeWidth=0;fontColor=#333333;strokeColor=#666666;opacity=30;" vertex="1" parent="1">
          <mxGeometry x="900" y="758.5" width="20" height="20" as="geometry" />
        </mxCell>
        <mxCell id="8brqG52jJ0TLhpy8n45_-1006" value="" style="shape=waypoint;sketch=0;fillStyle=solid;size=6;pointerEvents=1;points=[];fillColor=#f5f5f5;resizable=0;rotatable=0;perimeter=centerPerimeter;snapToPoint=1;strokeWidth=0;fontColor=#333333;strokeColor=#666666;opacity=30;" vertex="1" parent="1">
          <mxGeometry x="920" y="778.5" width="20" height="20" as="geometry" />
        </mxCell>
        <mxCell id="8brqG52jJ0TLhpy8n45_-1007" value="" style="shape=waypoint;sketch=0;fillStyle=solid;size=6;pointerEvents=1;points=[];fillColor=#f5f5f5;resizable=0;rotatable=0;perimeter=centerPerimeter;snapToPoint=1;strokeWidth=0;fontColor=#333333;strokeColor=#666666;opacity=30;" vertex="1" parent="1">
          <mxGeometry x="900" y="778.5" width="20" height="20" as="geometry" />
        </mxCell>
        <mxCell id="8brqG52jJ0TLhpy8n45_-1008" value="" style="shape=waypoint;sketch=0;fillStyle=solid;size=6;pointerEvents=1;points=[];fillColor=#f5f5f5;resizable=0;rotatable=0;perimeter=centerPerimeter;snapToPoint=1;strokeWidth=0;fontColor=#333333;strokeColor=#666666;opacity=30;" vertex="1" parent="1">
          <mxGeometry x="920" y="798.5" width="20" height="20" as="geometry" />
        </mxCell>
        <mxCell id="8brqG52jJ0TLhpy8n45_-1009" value="" style="shape=waypoint;sketch=0;fillStyle=solid;size=6;pointerEvents=1;points=[];fillColor=#f5f5f5;resizable=0;rotatable=0;perimeter=centerPerimeter;snapToPoint=1;strokeWidth=0;fontColor=#333333;strokeColor=#666666;opacity=30;" vertex="1" parent="1">
          <mxGeometry x="920" y="758.5" width="20" height="20" as="geometry" />
        </mxCell>
        <mxCell id="8brqG52jJ0TLhpy8n45_-1010" value="" style="shape=waypoint;sketch=0;fillStyle=solid;size=6;pointerEvents=1;points=[];fillColor=#f5f5f5;resizable=0;rotatable=0;perimeter=centerPerimeter;snapToPoint=1;strokeWidth=0;fontColor=#333333;strokeColor=#666666;opacity=30;" vertex="1" parent="1">
          <mxGeometry x="920" y="738.5" width="20" height="20" as="geometry" />
        </mxCell>
        <mxCell id="8brqG52jJ0TLhpy8n45_-1011" value="" style="shape=waypoint;sketch=0;fillStyle=solid;size=6;pointerEvents=1;points=[];fillColor=#f5f5f5;resizable=0;rotatable=0;perimeter=centerPerimeter;snapToPoint=1;strokeWidth=0;fontColor=#333333;strokeColor=#666666;opacity=30;" vertex="1" parent="1">
          <mxGeometry x="820" y="698.5" width="20" height="20" as="geometry" />
        </mxCell>
        <mxCell id="8brqG52jJ0TLhpy8n45_-1012" value="" style="shape=waypoint;sketch=0;fillStyle=solid;size=6;pointerEvents=1;points=[];fillColor=#f5f5f5;resizable=0;rotatable=0;perimeter=centerPerimeter;snapToPoint=1;strokeWidth=0;fontColor=#333333;strokeColor=#666666;opacity=30;" vertex="1" parent="1">
          <mxGeometry x="840" y="718.5" width="20" height="20" as="geometry" />
        </mxCell>
        <mxCell id="8brqG52jJ0TLhpy8n45_-1013" value="" style="shape=waypoint;sketch=0;fillStyle=solid;size=6;pointerEvents=1;points=[];fillColor=#f5f5f5;resizable=0;rotatable=0;perimeter=centerPerimeter;snapToPoint=1;strokeWidth=0;fontColor=#333333;strokeColor=#666666;opacity=30;" vertex="1" parent="1">
          <mxGeometry x="860" y="738.5" width="20" height="20" as="geometry" />
        </mxCell>
        <mxCell id="8brqG52jJ0TLhpy8n45_-1014" value="" style="shape=waypoint;sketch=0;fillStyle=solid;size=6;pointerEvents=1;points=[];fillColor=#f5f5f5;resizable=0;rotatable=0;perimeter=centerPerimeter;snapToPoint=1;strokeWidth=0;fontColor=#333333;strokeColor=#666666;opacity=30;" vertex="1" parent="1">
          <mxGeometry x="880" y="738.5" width="20" height="20" as="geometry" />
        </mxCell>
        <mxCell id="8brqG52jJ0TLhpy8n45_-1015" value="" style="shape=waypoint;sketch=0;fillStyle=solid;size=6;pointerEvents=1;points=[];fillColor=#f5f5f5;resizable=0;rotatable=0;perimeter=centerPerimeter;snapToPoint=1;strokeWidth=0;fontColor=#333333;strokeColor=#666666;opacity=30;" vertex="1" parent="1">
          <mxGeometry x="840" y="698.5" width="20" height="20" as="geometry" />
        </mxCell>
        <mxCell id="8brqG52jJ0TLhpy8n45_-1016" value="" style="shape=waypoint;sketch=0;fillStyle=solid;size=6;pointerEvents=1;points=[];fillColor=#f5f5f5;resizable=0;rotatable=0;perimeter=centerPerimeter;snapToPoint=1;strokeWidth=0;fontColor=#333333;strokeColor=#666666;opacity=30;" vertex="1" parent="1">
          <mxGeometry x="860" y="698.5" width="20" height="20" as="geometry" />
        </mxCell>
        <mxCell id="8brqG52jJ0TLhpy8n45_-1017" value="" style="shape=waypoint;sketch=0;fillStyle=solid;size=6;pointerEvents=1;points=[];fillColor=#f5f5f5;resizable=0;rotatable=0;perimeter=centerPerimeter;snapToPoint=1;strokeWidth=0;fontColor=#333333;strokeColor=#666666;opacity=30;" vertex="1" parent="1">
          <mxGeometry x="880" y="718.5" width="20" height="20" as="geometry" />
        </mxCell>
        <mxCell id="8brqG52jJ0TLhpy8n45_-1018" value="" style="shape=waypoint;sketch=0;fillStyle=solid;size=6;pointerEvents=1;points=[];fillColor=#f5f5f5;resizable=0;rotatable=0;perimeter=centerPerimeter;snapToPoint=1;strokeWidth=0;fontColor=#333333;strokeColor=#666666;opacity=30;" vertex="1" parent="1">
          <mxGeometry x="900" y="738.5" width="20" height="20" as="geometry" />
        </mxCell>
        <mxCell id="8brqG52jJ0TLhpy8n45_-1019" value="" style="shape=waypoint;sketch=0;fillStyle=solid;size=6;pointerEvents=1;points=[];fillColor=#f5f5f5;resizable=0;rotatable=0;perimeter=centerPerimeter;snapToPoint=1;strokeWidth=0;fontColor=#333333;strokeColor=#666666;opacity=30;" vertex="1" parent="1">
          <mxGeometry x="860" y="718.5" width="20" height="20" as="geometry" />
        </mxCell>
        <mxCell id="8brqG52jJ0TLhpy8n45_-1020" value="" style="shape=waypoint;sketch=0;fillStyle=solid;size=6;pointerEvents=1;points=[];fillColor=#f5f5f5;resizable=0;rotatable=0;perimeter=centerPerimeter;snapToPoint=1;strokeWidth=0;fontColor=#333333;strokeColor=#666666;opacity=30;" vertex="1" parent="1">
          <mxGeometry x="900" y="718.5" width="20" height="20" as="geometry" />
        </mxCell>
        <mxCell id="8brqG52jJ0TLhpy8n45_-1021" value="" style="shape=waypoint;sketch=0;fillStyle=solid;size=6;pointerEvents=1;points=[];fillColor=#f5f5f5;resizable=0;rotatable=0;perimeter=centerPerimeter;snapToPoint=1;strokeWidth=0;fontColor=#333333;strokeColor=#666666;opacity=30;" vertex="1" parent="1">
          <mxGeometry x="920" y="698.5" width="20" height="20" as="geometry" />
        </mxCell>
        <mxCell id="8brqG52jJ0TLhpy8n45_-1022" value="" style="shape=waypoint;sketch=0;fillStyle=solid;size=6;pointerEvents=1;points=[];fillColor=#f5f5f5;resizable=0;rotatable=0;perimeter=centerPerimeter;snapToPoint=1;strokeWidth=0;fontColor=#333333;strokeColor=#666666;opacity=30;" vertex="1" parent="1">
          <mxGeometry x="920" y="718.5" width="20" height="20" as="geometry" />
        </mxCell>
        <mxCell id="8brqG52jJ0TLhpy8n45_-1023" value="" style="shape=waypoint;sketch=0;fillStyle=solid;size=6;pointerEvents=1;points=[];fillColor=#f5f5f5;resizable=0;rotatable=0;perimeter=centerPerimeter;snapToPoint=1;strokeWidth=0;fontColor=#333333;strokeColor=#666666;opacity=30;" vertex="1" parent="1">
          <mxGeometry x="900" y="698.5" width="20" height="20" as="geometry" />
        </mxCell>
        <mxCell id="8brqG52jJ0TLhpy8n45_-1024" value="" style="shape=waypoint;sketch=0;fillStyle=solid;size=6;pointerEvents=1;points=[];fillColor=#f5f5f5;resizable=0;rotatable=0;perimeter=centerPerimeter;snapToPoint=1;strokeWidth=0;fontColor=#333333;strokeColor=#666666;opacity=30;" vertex="1" parent="1">
          <mxGeometry x="880" y="698.5" width="20" height="20" as="geometry" />
        </mxCell>
        <mxCell id="8brqG52jJ0TLhpy8n45_-1025" value="" style="shape=waypoint;sketch=0;fillStyle=solid;size=6;pointerEvents=1;points=[];fillColor=#f5f5f5;resizable=0;rotatable=0;perimeter=centerPerimeter;snapToPoint=1;strokeWidth=0;fontColor=#333333;strokeColor=#666666;opacity=30;" vertex="1" parent="1">
          <mxGeometry x="860" y="758.5" width="20" height="20" as="geometry" />
        </mxCell>
        <mxCell id="8brqG52jJ0TLhpy8n45_-1026" value="" style="rounded=0;whiteSpace=wrap;html=1;fillColor=#f8cecc;strokeColor=#b85450;" vertex="1" parent="1">
          <mxGeometry x="940" y="638.5" width="20" height="20" as="geometry" />
        </mxCell>
        <mxCell id="8brqG52jJ0TLhpy8n45_-1027" value="" style="ellipse;whiteSpace=wrap;html=1;aspect=fixed;fillColor=#e1d5e7;strokeColor=#9673a6;strokeWidth=3;" vertex="1" parent="1">
          <mxGeometry x="710" y="888.5" width="20" height="20" as="geometry" />
        </mxCell>
        <mxCell id="8brqG52jJ0TLhpy8n45_-1028" value="" style="endArrow=classic;html=1;rounded=0;fontSize=12;startSize=8;endSize=8;curved=1;entryX=0.5;entryY=0.5;entryDx=0;entryDy=0;entryPerimeter=0;" edge="1" parent="1" source="8brqG52jJ0TLhpy8n45_-1025" target="8brqG52jJ0TLhpy8n45_-975">
          <mxGeometry width="50" height="50" relative="1" as="geometry">
            <mxPoint x="850" y="778.5" as="sourcePoint" />
            <mxPoint x="900" y="728.5" as="targetPoint" />
          </mxGeometry>
        </mxCell>
        <mxCell id="8brqG52jJ0TLhpy8n45_-1029" value="" style="endArrow=classic;html=1;rounded=0;fontSize=12;startSize=8;endSize=8;curved=1;entryX=0.5;entryY=0.5;entryDx=0;entryDy=0;entryPerimeter=0;" edge="1" parent="1" source="8brqG52jJ0TLhpy8n45_-1025" target="8brqG52jJ0TLhpy8n45_-1026">
          <mxGeometry width="50" height="50" relative="1" as="geometry">
            <mxPoint x="810" y="758.5" as="sourcePoint" />
            <mxPoint x="860" y="708.5" as="targetPoint" />
          </mxGeometry>
        </mxCell>
        <mxCell id="8brqG52jJ0TLhpy8n45_-1030" value="" style="endArrow=classic;html=1;rounded=0;fontSize=12;startSize=8;endSize=8;curved=1;entryX=0.55;entryY=0.476;entryDx=0;entryDy=0;entryPerimeter=0;" edge="1" parent="1" source="8brqG52jJ0TLhpy8n45_-1025" target="8brqG52jJ0TLhpy8n45_-976">
          <mxGeometry width="50" height="50" relative="1" as="geometry">
            <mxPoint x="850" y="778.5" as="sourcePoint" />
            <mxPoint x="900" y="728.5" as="targetPoint" />
          </mxGeometry>
        </mxCell>
        <mxCell id="8brqG52jJ0TLhpy8n45_-1031" value="" style="endArrow=classic;html=1;rounded=0;fontSize=12;startSize=8;endSize=8;curved=1;exitX=1;exitY=0;exitDx=0;exitDy=0;exitPerimeter=0;" edge="1" parent="1" source="8brqG52jJ0TLhpy8n45_-1027">
          <mxGeometry width="50" height="50" relative="1" as="geometry">
            <mxPoint x="750" y="878.5" as="sourcePoint" />
            <mxPoint x="870.6049636314656" y="768.5" as="targetPoint" />
          </mxGeometry>
        </mxCell>
        <mxCell id="8brqG52jJ0TLhpy8n45_-1032" value="" style="rounded=0;whiteSpace=wrap;html=1;fillColor=none;" vertex="1" parent="1">
          <mxGeometry x="810" y="708.5" width="120" height="120" as="geometry" />
        </mxCell>
        <mxCell id="8brqG52jJ0TLhpy8n45_-1033" value="" style="shape=curlyBracket;whiteSpace=wrap;html=1;rounded=1;flipH=1;labelPosition=right;verticalLabelPosition=middle;align=left;verticalAlign=middle;rotation=90;" vertex="1" parent="1">
          <mxGeometry x="860" y="782.5" width="20" height="120" as="geometry" />
        </mxCell>
        <mxCell id="8brqG52jJ0TLhpy8n45_-1034" value="&lt;font face=&quot;Times New Roman&quot;&gt;&lt;b&gt;R&lt;/b&gt;&lt;/font&gt;" style="text;html=1;align=center;verticalAlign=middle;whiteSpace=wrap;rounded=0;fontSize=16;" vertex="1" parent="1">
          <mxGeometry x="845" y="849.5" width="60" height="30" as="geometry" />
        </mxCell>
      </root>
    </mxGraphModel>
  </diagram>
</mxfile>
